<svg xmlns="http://www.w3.org/2000/svg" width="41.563" height="36.917" viewBox="0 0 41.563 36.917">
  <path id="icons-03" d="M58.022,30.859a9.174,9.174,0,0,0-8.148,4.975l-2.827-1.458V30.584a9.162,9.162,0,0,0,6.315-15.1.61.61,0,1,0-.925.794,7.938,7.938,0,0,1-1.189,11.455A3.055,3.055,0,0,0,49.81,25.3l-1.289-.807V24a4.353,4.353,0,1,0-4.181,0v.493l-1.28.807a3.05,3.05,0,0,0-1.438,2.475,7.945,7.945,0,0,1,8.993-13.08.609.609,0,1,0,.644-1.032,9.165,9.165,0,1,0-5.43,16.92v3.791l-2.874,1.485a9.165,9.165,0,0,0-16.967,6.707.609.609,0,1,0,1.168-.339,7.947,7.947,0,1,1,12.487,4.087A3.048,3.048,0,0,0,38.2,43.885l-1.289-.807v-.493a4.353,4.353,0,1,0-4.181,0v.493l-1.289.807A3.046,3.046,0,0,0,30,46.36a7.907,7.907,0,0,1-1.746-1.817.609.609,0,1,0-1,.691,9.165,9.165,0,0,0,16.184-8.25l3-1.561,2.95,1.539a9.165,9.165,0,1,0,8.634-6.1ZM31.69,38.77a3.135,3.135,0,1,1,3.135,3.135A3.135,3.135,0,0,1,31.69,38.77Zm6.732,8.317a7.934,7.934,0,0,1-7.209.029V46.49a1.844,1.844,0,0,1,.872-1.561l1.574-.986a.609.609,0,0,0,.3-.528v-.381a4.317,4.317,0,0,0,1.746,0v.381a.609.609,0,0,0,.285.517l1.576.986a1.846,1.846,0,0,1,.87,1.561Zm4.883-26.9a3.135,3.135,0,1,1,3.122,3.135,3.135,3.135,0,0,1-3.122-3.135Zm3.1,9.2a7.894,7.894,0,0,1-3.568-.85V27.9a1.844,1.844,0,0,1,.872-1.561l1.574-.986a.606.606,0,0,0,.27-.526V24.45a4.426,4.426,0,0,0,1.746,0v.381a.607.607,0,0,0,.285.515l1.574.986a1.844,1.844,0,0,1,.872,1.561v.6A7.912,7.912,0,0,1,46.409,29.38ZM61.6,47.116a7.943,7.943,0,0,1-7.209-.031v-.6a1.844,1.844,0,0,1,.872-1.561l1.574-.986a.609.609,0,0,0,.285-.517v-.381a4.317,4.317,0,0,0,1.746,0v.381a.609.609,0,0,0,.285.517l1.576.986a1.846,1.846,0,0,1,.87,1.561Zm1.213-.758a3.046,3.046,0,0,0-1.438-2.475l-1.289-.807v-.493a4.346,4.346,0,0,0,2.034-5.209.609.609,0,1,0-1.153.39,3.137,3.137,0,1,1-1.378-1.7.609.609,0,1,0,.62-1.048,4.353,4.353,0,1,0-4.3,7.564v.493l-1.289.807a3.053,3.053,0,0,0-1.436,2.428,7.945,7.945,0,1,1,9.633.047Z" transform="translate(-25.629 -12.271)" fill="#fff"/>
</svg>
