<svg id="icons-02" xmlns="http://www.w3.org/2000/svg" width="35.923" height="36.099" viewBox="0 0 35.923 36.099">
  <path id="Path_917" data-name="Path 917" d="M80.9,23.946h1.128v3.073l-.085-.085a.531.531,0,1,0-.749.754l.937.934a.6.6,0,0,0,.433.181A.609.609,0,0,0,83,28.626l.93-.939a.531.531,0,0,0-.749-.749l-.085.085V23.946H94v3.073l-.087-.085a.531.531,0,1,0-.747.754l.934.934a.609.609,0,0,0,.856,0l.934-.934a.529.529,0,1,0-.747-.749l-.094.08V23.946H96.2A1.044,1.044,0,0,0,97.237,22.9V15.151A1.041,1.041,0,0,0,96.2,14.11H92.789a.528.528,0,1,0,0,1.057h3.4v7.722H80.917V15.167h9.617a.528.528,0,0,0,0-1.057H80.9a1.044,1.044,0,0,0-1.044,1.041V22.9A1.046,1.046,0,0,0,80.9,23.946Zm0,0" transform="translate(-70.586 -14.11)" fill="#fff"/>
  <path id="Path_918" data-name="Path 918" d="M52.708,78.955h2.029v2.955l-.085-.085a.531.531,0,1,0-.749.749l.937.934a.6.6,0,0,0,.428.176.609.609,0,0,0,.428-.176l.945-.934a.531.531,0,1,0-.76-.74l-.085.085V78.955h2.431a.531.531,0,0,0,0-1.059h-5.5v-8.25h5.332a.531.531,0,1,0,0-1.059H52.7A1.046,1.046,0,0,0,51.66,69.63v8.293A1.046,1.046,0,0,0,52.7,78.966Zm0,0" transform="translate(-48.674 -56.438)" fill="#fff"/>
  <path id="Path_919" data-name="Path 919" d="M103.868,125.72h-1.9a.531.531,0,0,0,0,1.059h1.882v9.093H94.759v-9.093h1.8a.531.531,0,0,0,0-1.059H94.744a1.046,1.046,0,0,0-1.044,1.044v9.124a1.046,1.046,0,0,0,1.044,1.044h9.124a1.046,1.046,0,0,0,1.044-1.044v-9.124A1.046,1.046,0,0,0,103.868,125.72Zm0,0" transform="translate(-81.34 -100.833)" fill="#fff"/>
  <path id="Path_920" data-name="Path 920" d="M95.114,78.916v2.955l-.085-.085a.531.531,0,1,0-.749.749l.937.934a.6.6,0,0,0,.428.176.609.609,0,0,0,.428-.176l.934-.934a.531.531,0,1,0-.749-.749l-.085.085V78.916h10.311v2.955l-.1-.076a.529.529,0,1,0-.747.749l.934.934a.609.609,0,0,0,.856,0l.934-.934a.529.529,0,1,0-.747-.749l-.087.085V78.916h2.029a1.046,1.046,0,0,0,1.044-1.044V69.58a1.046,1.046,0,0,0-1.044-1.044H104.21a.531.531,0,0,0,0,1.059h5.345v8.262H98.2v-8.25h.827a.531.531,0,0,0,0-1.059h-.85a1.046,1.046,0,0,0-1.044,1.044v8.277H94.144V69.58A1.046,1.046,0,0,0,93.1,68.536h-.847a.531.531,0,1,0,0,1.059h.832v8.262H89.49a.531.531,0,0,0,0,1.059Zm0,0" transform="translate(-77.684 -56.399)" fill="#fff"/>
  <path id="Path_921" data-name="Path 921" d="M48.436,125.716h-.861a.531.531,0,1,0,0,1.059h.852v9.093h-9.1v-9.093h2.832a.531.531,0,1,0,0-1.059H39.311a1.044,1.044,0,0,0-1.041,1.044v9.124a1.044,1.044,0,0,0,1.041,1.044h9.124a1.046,1.046,0,0,0,1.044-1.044V126.76a1.046,1.046,0,0,0-1.044-1.044Zm0,0" transform="translate(-38.27 -100.829)" fill="#fff"/>
  <path id="Path_922" data-name="Path 922" d="M159.258,125.72h-2.845a.531.531,0,0,0,0,1.059h2.83v9.093h-9.093v-9.093H151a.531.531,0,0,0,0-1.059h-.87a1.046,1.046,0,0,0-1.044,1.044v9.124a1.046,1.046,0,0,0,1.044,1.044h9.124a1.046,1.046,0,0,0,1.044-1.044v-9.124A1.046,1.046,0,0,0,159.258,125.72Zm0,0" transform="translate(-124.379 -100.833)" fill="#fff"/>
</svg>
