<svg xmlns="http://www.w3.org/2000/svg" width="17.798" height="18.311" viewBox="0 0 17.798 18.311">
  <g id="Group_11419" data-name="Group 11419" transform="translate(1390.16 -18900.488)">
    <path id="Path_23446" data-name="Path 23446" d="M18.006,22.557H7.054A1.981,1.981,0,0,1,5,20.659V8.633a.687.687,0,0,1,1.369,0V20.659a.66.66,0,0,0,.685.633H18.006a.66.66,0,0,0,.685-.633V8.633a.687.687,0,0,1,1.369,0V20.659a1.981,1.981,0,0,1-2.054,1.9Z" transform="translate(-1393.791 18896.242)" fill="#2d2a4b"/>
    <path id="Path_23450" data-name="Path 23450" d="M20.114,6.266H3.685A.635.635,0,1,1,3.685,5H20.114a.635.635,0,1,1,0,1.266Z" transform="translate(-1393.16 18898.02)" fill="#2d2a4b"/>
    <path id="Path_23451" data-name="Path 23451" d="M17.161,4.8a.66.66,0,0,1-.685-.633v-1.9H12.369v1.9a.687.687,0,0,1-1.369,0V1.633A.66.66,0,0,1,11.685,1h5.476a.66.66,0,0,1,.685.633V4.165A.66.66,0,0,1,17.161,4.8Z" transform="translate(-1395.684 18899.488)" fill="#2d2a4b"/>
    <path id="Path_23447" data-name="Path 23447" d="M15.685,20.127A.66.66,0,0,1,15,19.494V10.633a.687.687,0,0,1,1.369,0v8.861A.66.66,0,0,1,15.685,20.127Z" transform="translate(-1396.945 18895.75)" fill="#2d2a4b"/>
    <path id="Path_23448" data-name="Path 23448" d="M20.685,19.6A.66.66,0,0,1,20,18.962V12.633a.687.687,0,0,1,1.369,0v6.329A.66.66,0,0,1,20.685,19.6Z" transform="translate(-1398.523 18895.035)" fill="#2d2a4b"/>
    <path id="Path_23449" data-name="Path 23449" d="M10.685,19.6A.66.66,0,0,1,10,18.962V12.633a.687.687,0,0,1,1.369,0v6.329A.66.66,0,0,1,10.685,19.6Z" transform="translate(-1395.368 18895.035)" fill="#2d2a4b"/>
  </g>
</svg>
