<svg id="icons-09" xmlns="http://www.w3.org/2000/svg" width="34.426" height="37.488" viewBox="0 0 34.426 37.488">
  <path id="Path_976" data-name="Path 976" d="M74.885,76.277a2.933,2.933,0,0,1-.737-.094L72.39,74.9a2.919,2.919,0,0,1-.446-1.561v-.716a5.782,5.782,0,0,0-2.259-4.564A11.936,11.936,0,0,1,76.872,46.75h.169A11.925,11.925,0,0,1,88.964,58.664a12.069,12.069,0,0,1-.223,2.283.5.5,0,0,1-.491.4.466.466,0,0,1-.1,0,.493.493,0,0,1-.319-.21.5.5,0,0,1-.078-.377A10.926,10.926,0,0,0,77.037,47.742h-.152A10.926,10.926,0,0,0,70.3,67.262a6.932,6.932,0,0,1,2.072,2.651.446.446,0,0,0,.408.265H73.8a.446.446,0,0,0,.446-.446V62.1a.471.471,0,0,0-.038-.183l-2.163-4.834a2.54,2.54,0,0,1,2.317-3.568h5.352a2.542,2.542,0,0,1,2.319,3.568l-2.163,4.834a.446.446,0,0,0-.04.183v7.639a.446.446,0,0,0,.446.446H81.3a.446.446,0,0,0,.408-.265,6.83,6.83,0,0,1,2.054-2.636,10.926,10.926,0,0,0,2.6-2.917.5.5,0,0,1,.854.522,11.959,11.959,0,0,1-2.841,3.184,5.74,5.74,0,0,0-2.23,4.549v.722a2.939,2.939,0,0,1-.341,1.371l-1.759,1.449a2.977,2.977,0,0,1-.843.123Zm-1.561-5.1a.449.449,0,0,0-.444.508,6.469,6.469,0,0,1,.069.928v.722a1.942,1.942,0,0,0,1.94,1.942H79.2a1.944,1.944,0,0,0,1.942-1.942v-.716a6.733,6.733,0,0,1,.067-.928.45.45,0,0,0-.442-.508ZM74.374,54.5a1.541,1.541,0,0,0-1.4,2.17l2.245,5.017a.479.479,0,0,1,.045.205v7.842a.446.446,0,0,0,.446.446h2.676a.446.446,0,0,0,.446-.446V61.893a.5.5,0,0,1,.042-.205l2.248-5.017A1.543,1.543,0,0,0,79.71,54.5Z" transform="translate(-59.905 -38.796)" fill="#8485b0"/>
  <path id="Path_977" data-name="Path 977" d="M117.072,13.143a.5.5,0,0,1-.5-.5V11.548a.5.5,0,0,1,1,0v1.095A.5.5,0,0,1,117.072,13.143Z" transform="translate(-99.871 -11.08)" fill="#8485b0"/>
  <path id="Path_978" data-name="Path 978" d="M75.453,23.131a.5.5,0,0,1-.446-.272l-.5-.974a.5.5,0,0,1,.223-.669.477.477,0,0,1,.223-.056.5.5,0,0,1,.446.272l.5.974a.5.5,0,0,1-.223.669A.484.484,0,0,1,75.453,23.131Z" transform="translate(-67.147 -18.912)" fill="#8485b0"/>
  <path id="Path_979" data-name="Path 979" d="M43.051,51.082a.484.484,0,0,1-.29-.094l-.892-.638a.5.5,0,0,1,.584-.814l.892.64a.5.5,0,0,1-.294.905Z" transform="translate(-41.682 -40.9)" fill="#8485b0"/>
  <path id="Path_980" data-name="Path 980" d="M156.976,23.092a.486.486,0,0,1-.223-.056.5.5,0,0,1-.223-.669l.511-.986a.5.5,0,0,1,.446-.272.477.477,0,0,1,.223.056.5.5,0,0,1,.223.669l-.5.974A.5.5,0,0,1,156.976,23.092Z" transform="translate(-130.88 -18.873)" fill="#8485b0"/>
  <path id="Path_981" data-name="Path 981" d="M188.066,51.029a.5.5,0,0,1-.292-.905l.892-.638a.5.5,0,1,1,.584.812l-.892.638A.5.5,0,0,1,188.066,51.029Z" transform="translate(-155.036 -40.847)" fill="#8485b0"/>
</svg>
