<svg xmlns="http://www.w3.org/2000/svg" width="251.281" height="246.724" viewBox="0 0 251.281 246.724">
  <g id="Group_2293" data-name="Group 2293" opacity="0.3">
    <g id="BACKGROUND" transform="translate(0 0)">
      <g id="Group_9" data-name="Group 9" transform="translate(2.978 9.146)">
        <g id="Group_8" data-name="Group 8" transform="translate(0 0)">
          <g id="Group_3" data-name="Group 3" transform="translate(0 5.561)" opacity="0.41">
            <g id="Group_2" data-name="Group 2">
              <g id="Group_1" data-name="Group 1">
                <path id="Path_1" data-name="Path 1" d="M28.457,186.05a75.056,75.056,0,0,1-.3-12.532A81.8,81.8,0,0,1,52,121.253c4.914-4.9,10.561-9.359,13.6-15.647,5.124-10.589,4.106-22.392,10.6-32.923a59.671,59.671,0,0,1,27.624-23.7c33.727-13.967,82.785,3.262,80.57,45.726-.008.152-.014.373-.019.653a15.216,15.216,0,0,0,15.57,15.575c31.717-.913,60.232,22.578,67.646,53.855,4.768,20.115-.263,42.705-14.1,57.848-10.327,11.3-24.609,17.968-38.99,22.791-28.835,9.669-59.52,13-89.825,11.5-28.367-1.409-58.551-8.115-77.911-29.315A73.539,73.539,0,0,1,28.457,186.05Z" transform="translate(-28.026 -44.223)" fill="#e1e2fe"/>
              </g>
            </g>
          </g>
          <g id="Group_4" data-name="Group 4" transform="translate(145.206)" opacity="0.31">
            <ellipse id="Ellipse_1" data-name="Ellipse 1" cx="7.287" cy="7.137" rx="7.287" ry="7.137" transform="matrix(0.021, -1, 1, 0.021, 0, 14.571)" fill="#e1e2fe"/>
          </g>
          <g id="Group_5" data-name="Group 5" transform="translate(31.566 3.676)" opacity="0.31">
            <path id="Path_2" data-name="Path 2" d="M85.614,44.739a3.683,3.683,0,1,0,3.49-3.95A3.708,3.708,0,0,0,85.614,44.739Z" transform="translate(-85.609 -40.785)" fill="#e1e2fe"/>
          </g>
          <g id="Group_6" data-name="Group 6" transform="translate(243.428 89.977)" opacity="0.31">
            <path id="Path_3" data-name="Path 3" d="M472.089,200.833a2.438,2.438,0,1,0,2.31-2.614A2.455,2.455,0,0,0,472.089,200.833Z" transform="translate(-472.086 -198.215)" fill="#e1e2fe"/>
          </g>
          <g id="Group_7" data-name="Group 7" transform="translate(209.359 206.116)" opacity="0.31">
            <ellipse id="Ellipse_2" data-name="Ellipse 2" cx="11.472" cy="11.236" rx="11.472" ry="11.236" transform="translate(0 22.939) rotate(-88.801)" fill="#e1e2fe"/>
          </g>
        </g>
      </g>
      <g id="Group_13" data-name="Group 13">
        <g id="Group_10" data-name="Group 10">
          <path id="Path_4" data-name="Path 4" d="M24.308,81.258a13.123,13.123,0,0,1,4.618-17.723c6.068-3.6,18.053-3.991,21.57,2.2s-5.8,12.16-9.413,18.3C36.043,92.6,27.825,87.45,24.308,81.258Z" transform="translate(-22.594 -37.066)" fill="#ecf1f7" opacity="0.47"/>
          <path id="Path_5" data-name="Path 5" d="M79.743,435.531a9.6,9.6,0,0,1-13.581-2.241c-3.141-4.449-4.335-13.749.025-16.959s9.515,3.586,14.371,5.93C87.331,425.53,84.1,432.321,79.743,435.531Z" transform="translate(-41.006 -197.258)" fill="#e1e2fe" opacity="0.47"/>
          <path id="Path_6" data-name="Path 6" d="M404.91,21.2a12.092,12.092,0,0,1,17.35-.264c4.858,4.819,8.342,16.1,3.619,21.061s-12.589-2.317-19.125-4.138C397.638,35.317,400.186,26.162,404.91,21.2Z" transform="translate(-193.4 -17.395)" fill="#e1e2fe" opacity="0.47"/>
        </g>
        <g id="Group_12" data-name="Group 12" transform="translate(9.18 18.488)">
          <path id="Path_7" data-name="Path 7" d="M42.452,112.4a53.481,53.481,0,0,0-1.995,28.721c2.777,12.768,12.339,23.993,10.709,37.611-.979,8.172-.8,15.662-1,23.691-.4,16.486,11.115,30.134,24.628,36.965,10.975,5.548,23.455,7.012,35.5,5.951,10.842-.954,21.519-3.8,31.824-7.328,9.932-3.4,19.572-7.625,30.281-7.308,8.906.263,17.164,3.573,25.617,5.872,20.179,5.488,44.052,4.708,61.2-7.186,18.8-13.037,26.394-37.775,19.824-59.393-3.524-11.6-8.229-21.646-6.527-34,.837-6.078,2.086-12.263.933-18.289-1.061-5.545-4.1-10.536-7.707-14.88-9.723-11.715-23.563-19.184-37.952-23.579-16.322-4.986-34.444-7.7-51.417-5.123-32.97,5.014-40.145.138-74.61-4.756C78.676,66.086,57,84.444,46.482,103.382A57.174,57.174,0,0,0,42.452,112.4Z" transform="translate(-39.34 -59.19)" fill="#e1e2fe" opacity="0.32"/>
          <g id="Group_11" data-name="Group 11" transform="translate(14.167)" opacity="0.83">
            <path id="Path_8" data-name="Path 8" d="M70.086,130.857c4.749-6.266,12.09-10.521,15.686-17.722,4.306-8.62,3.4-18.792,7.244-27.6A59.882,59.882,0,0,1,121.879,55.4c6.212-2.925,13.028-4.7,19.678-4.194,10.251.786,19.093,6.889,26.008,14.177,10.291,10.846,17.568,26.251,29.918,34.941,6.816,4.8,14.825-.292,22.046-1.906a49.959,49.959,0,0,1,24.453.824A52.013,52.013,0,0,1,276.911,127.2c6.606,14.489,5.667,34.52-6.733,46.977-5.737,5.763-13.516,9.615-17.773,16.517-5.343,8.663-5.969,20.372-7.461,30a63.659,63.659,0,0,1-13.027,29.6l-.234.292a41.967,41.967,0,0,1-49.213,12.335l-36.343-15.745c-36.875-15.976-64.87-41.719-78.31-79.029-2.909-8.073-3.965-25.286-.26-33.167A23.124,23.124,0,0,1,70.086,130.857Z" transform="translate(-65.183 -51.12)" fill="#e1e2fe" opacity="0.81"/>
          </g>
        </g>
      </g>
      <circle id="Ellipse_3" data-name="Ellipse 3" cx="2.467" cy="2.467" r="2.467" transform="translate(195.687 225.291)" fill="#3e479b" opacity="0.58"/>
      <circle id="Ellipse_4" data-name="Ellipse 4" cx="1.233" cy="1.233" r="1.233" transform="translate(134.493 9.849)" fill="#3e479b" opacity="0.58"/>
      <circle id="Ellipse_5" data-name="Ellipse 5" cx="2.467" cy="2.467" r="2.467" transform="translate(57.133 231.215)" fill="#3e479b" opacity="0.58"/>
      <circle id="Ellipse_6" data-name="Ellipse 6" cx="1.919" cy="1.919" r="1.919" transform="translate(206.283 242.887)" fill="#ef929c" opacity="0.58"/>
      <circle id="Ellipse_7" data-name="Ellipse 7" cx="0.822" cy="0.822" r="0.822" transform="translate(18.619 12)" fill="#3e479b" opacity="0.58"/>
      <circle id="Ellipse_8" data-name="Ellipse 8" cx="2.962" cy="2.962" r="2.962" transform="translate(238.11 36.012) rotate(-63.039)" fill="#ef929c" opacity="0.58"/>
      <path id="Path_9" data-name="Path 9" d="M73.253,25.646a1.162,1.162,0,1,1-.894-1.379A1.162,1.162,0,0,1,73.253,25.646Z" transform="translate(-44.444 -20.488)" fill="#ef929c" opacity="0.58"/>
      <path id="Path_10" data-name="Path 10" d="M287.879,18.8a1.162,1.162,0,1,1-.893-1.379A1.162,1.162,0,0,1,287.879,18.8Z" transform="translate(-141.415 -17.395)" fill="#ef929c" opacity="0.58"/>
      <path id="Path_11" data-name="Path 11" d="M437.034,85.518a.987.987,0,1,1-.759-1.172A.987.987,0,0,1,437.034,85.518Z" transform="translate(-208.961 -47.634)" fill="#3e479b" opacity="0.58"/>
      <path id="Path_12" data-name="Path 12" d="M39.491,395.925a.987.987,0,1,1-.759-1.172A.986.986,0,0,1,39.491,395.925Z" transform="translate(-29.346 -187.88)" fill="#3e479b" opacity="0.58"/>
    </g>
    <g id="OBJECTS" transform="translate(23.551 14.425)">
      <g id="Group_28" data-name="Group 28" transform="translate(8.129 32.859)">
        <g id="Group_18" data-name="Group 18" transform="translate(41.923)" opacity="0.66">
          <g id="Group_17" data-name="Group 17">
            <g id="Group_14" data-name="Group 14" transform="translate(86.61)">
              <path id="Path_13" data-name="Path 13" d="M345.7,161.064H341.42a3.261,3.261,0,0,1-3.257-3.258v-4.814a2.17,2.17,0,0,0-1.42-2.029c-.505-.185-1.009-.394-1.5-.62a2.19,2.19,0,0,0-2.461.422l-3.4,3.4a3.259,3.259,0,0,1-4.607,0l-3.026-3.025a3.262,3.262,0,0,1,0-4.607l3.4-3.4a2.189,2.189,0,0,0,.421-2.461c-.227-.492-.436-.995-.619-1.5a2.171,2.171,0,0,0-2.03-1.42h-4.813a3.262,3.262,0,0,1-3.258-3.258v-4.279a3.262,3.262,0,0,1,3.258-3.258h4.813a2.171,2.171,0,0,0,2.03-1.42c.184-.5.393-1.006.619-1.5a2.19,2.19,0,0,0-.421-2.461l-3.4-3.4a3.261,3.261,0,0,1,0-4.607l3.026-3.026a3.261,3.261,0,0,1,4.607,0l3.4,3.4a2.189,2.189,0,0,0,2.461.422c.491-.227.995-.436,1.5-.62a2.171,2.171,0,0,0,1.42-2.03v-4.813a3.261,3.261,0,0,1,3.257-3.258H345.7a3.262,3.262,0,0,1,3.258,3.258v4.813a2.17,2.17,0,0,0,1.42,2.03c.5.184,1,.393,1.5.619a2.189,2.189,0,0,0,2.461-.421l3.4-3.4a3.261,3.261,0,0,1,4.607,0l3.026,3.026a3.262,3.262,0,0,1,0,4.607l-3.4,3.4a2.187,2.187,0,0,0-.422,2.461c.226.491.435.994.619,1.5a2.171,2.171,0,0,0,2.03,1.42h4.813a3.262,3.262,0,0,1,3.258,3.258V134.5a3.262,3.262,0,0,1-3.258,3.258H364.2a2.172,2.172,0,0,0-2.03,1.42c-.184.5-.392,1-.619,1.5a2.187,2.187,0,0,0,.421,2.461l3.4,3.4a3.263,3.263,0,0,1,0,4.607l-3.026,3.025a3.259,3.259,0,0,1-4.607,0l-3.4-3.4a2.19,2.19,0,0,0-2.461-.422c-.487.226-.991.435-1.5.62a2.17,2.17,0,0,0-1.42,2.029v4.814A3.262,3.262,0,0,1,345.7,161.064Zm-11.382-12.022a3.3,3.3,0,0,1,1.39.306c.46.213.936.41,1.414.585a3.271,3.271,0,0,1,2.139,3.059v4.814a2.164,2.164,0,0,0,2.161,2.161H345.7a2.164,2.164,0,0,0,2.161-2.161v-4.814A3.272,3.272,0,0,1,350,149.933c.478-.175.953-.372,1.413-.585a3.289,3.289,0,0,1,3.7.641l3.4,3.4a2.165,2.165,0,0,0,3.057,0l3.026-3.025a2.165,2.165,0,0,0,0-3.057l-3.4-3.4a3.287,3.287,0,0,1-.641-3.7c.214-.463.411-.939.585-1.412a3.271,3.271,0,0,1,3.059-2.139h4.813a2.164,2.164,0,0,0,2.162-2.162v-4.279a2.164,2.164,0,0,0-2.162-2.161H364.2a3.271,3.271,0,0,1-3.059-2.138c-.174-.475-.372-.951-.585-1.413a3.286,3.286,0,0,1,.641-3.7l3.4-3.4a2.165,2.165,0,0,0,0-3.057l-3.026-3.026a2.165,2.165,0,0,0-3.057,0l-3.4,3.4a3.29,3.29,0,0,1-3.7.641c-.464-.214-.939-.412-1.412-.585a3.272,3.272,0,0,1-2.14-3.059v-4.813a2.163,2.163,0,0,0-2.161-2.161H341.42a2.164,2.164,0,0,0-2.161,2.161v4.813a3.272,3.272,0,0,1-2.139,3.059c-.474.173-.949.371-1.414.585a3.288,3.288,0,0,1-3.7-.641l-3.4-3.4a2.165,2.165,0,0,0-3.057,0l-3.025,3.026a2.165,2.165,0,0,0,0,3.057l3.4,3.4a3.29,3.29,0,0,1,.641,3.7c-.214.463-.411.938-.586,1.413a3.27,3.27,0,0,1-3.059,2.138h-4.813a2.164,2.164,0,0,0-2.162,2.161V134.5a2.164,2.164,0,0,0,2.162,2.162h4.813a3.27,3.27,0,0,1,3.059,2.139c.174.473.371.949.586,1.413a3.29,3.29,0,0,1-.641,3.7l-3.4,3.4a2.165,2.165,0,0,0,0,3.057l3.025,3.025a2.165,2.165,0,0,0,3.057,0l3.4-3.4A3.262,3.262,0,0,1,334.317,149.042Zm9.243-1.637a15.048,15.048,0,1,1,15.048-15.048A15.065,15.065,0,0,1,343.561,147.4Zm0-29a13.951,13.951,0,1,0,13.951,13.951A13.967,13.967,0,0,0,343.561,118.406Z" transform="translate(-314.853 -103.65)" fill="#fff"/>
            </g>
            <g id="Group_15" data-name="Group 15" transform="translate(50.038 109.783)" opacity="0.84">
              <path id="Path_14" data-name="Path 14" d="M307.59,329.767h-5.338a3.006,3.006,0,0,1-2.821-1.973q-.3-.822-.668-1.613a3.023,3.023,0,0,1,.589-3.415l3.775-3.775a3.005,3.005,0,0,0,0-4.25l-3.355-3.355a3,3,0,0,0-4.25,0l-3.775,3.775a3.022,3.022,0,0,1-3.415.589q-.79-.366-1.613-.668a3.007,3.007,0,0,1-1.973-2.822v-5.339a3.005,3.005,0,0,0-3.005-3.005h-4.745a3.005,3.005,0,0,0-3.005,3.005v5.339a3.007,3.007,0,0,1-1.973,2.822q-.823.3-1.613.668a3.023,3.023,0,0,1-3.415-.589l-3.775-3.775a3.005,3.005,0,0,0-4.25,0l-3.355,3.355a3.005,3.005,0,0,0,0,4.25l3.775,3.775a3.023,3.023,0,0,1,.589,3.415q-.366.789-.668,1.613a3.006,3.006,0,0,1-2.822,1.973h-5.338a3.006,3.006,0,0,0-3.005,3.005v4.746a3.006,3.006,0,0,0,3.005,3.005h5.338A3.006,3.006,0,0,1,259.3,342.5q.3.822.668,1.613a3.023,3.023,0,0,1-.589,3.415l-3.775,3.775a3.005,3.005,0,0,0,0,4.25l3.355,3.355a3.005,3.005,0,0,0,4.25,0l3.775-3.775a3.024,3.024,0,0,1,3.415-.589q.789.366,1.613.668a3.007,3.007,0,0,1,1.973,2.822v5.339a3.005,3.005,0,0,0,3.005,3.005h4.745a3.005,3.005,0,0,0,3.005-3.005V358.03a3.007,3.007,0,0,1,1.973-2.822q.823-.3,1.613-.668a3.023,3.023,0,0,1,3.415.589l3.775,3.775a3,3,0,0,0,4.25,0l3.355-3.355a3.005,3.005,0,0,0,0-4.25l-3.775-3.775a3.023,3.023,0,0,1-.589-3.415q.366-.789.668-1.613a3.006,3.006,0,0,1,2.821-1.974h5.338a3.005,3.005,0,0,0,3.005-3.005v-4.746A3.005,3.005,0,0,0,307.59,329.767Zm-28.223,21.458a16.08,16.08,0,1,1,16.08-16.081A16.08,16.08,0,0,1,279.367,351.225Z" transform="translate(-248.138 -303.916)" fill="#fff"/>
            </g>
            <g id="Group_16" data-name="Group 16" transform="translate(0 119.2)">
              <path id="Path_15" data-name="Path 15" d="M182.859,369.5h-3.594a2.828,2.828,0,0,1-2.824-2.825v-4.043a1.737,1.737,0,0,0-1.136-1.623c-.424-.155-.849-.33-1.263-.523a1.753,1.753,0,0,0-1.969.336l-2.86,2.859a2.823,2.823,0,0,1-3.994,0l-2.541-2.541a2.823,2.823,0,0,1,0-3.995l2.859-2.859a1.75,1.75,0,0,0,.337-1.969c-.191-.412-.367-.837-.523-1.264a1.736,1.736,0,0,0-1.623-1.136h-4.043a2.828,2.828,0,0,1-2.825-2.825V343.5a2.828,2.828,0,0,1,2.825-2.824h4.043a1.736,1.736,0,0,0,1.623-1.136c.157-.429.333-.854.523-1.263a1.751,1.751,0,0,0-.337-1.969l-2.859-2.86a2.823,2.823,0,0,1,0-3.994l2.541-2.542a2.828,2.828,0,0,1,3.994,0l2.86,2.86a1.75,1.75,0,0,0,1.969.336c.408-.19.834-.365,1.263-.523a1.736,1.736,0,0,0,1.136-1.623v-4.044a2.827,2.827,0,0,1,2.824-2.824h3.594a2.827,2.827,0,0,1,2.824,2.824v4.044a1.736,1.736,0,0,0,1.136,1.623c.43.158.855.333,1.263.523a1.751,1.751,0,0,0,1.969-.336l2.859-2.86a2.828,2.828,0,0,1,3.994,0l2.542,2.542a2.824,2.824,0,0,1,0,3.994l-2.859,2.86a1.752,1.752,0,0,0-.337,1.969c.19.408.366.834.523,1.263a1.736,1.736,0,0,0,1.623,1.135h4.043a2.828,2.828,0,0,1,2.825,2.824v3.594a2.828,2.828,0,0,1-2.825,2.825H198.4a1.736,1.736,0,0,0-1.623,1.136c-.156.426-.333.852-.523,1.264a1.75,1.75,0,0,0,.337,1.969l2.859,2.859a2.825,2.825,0,0,1,0,3.995l-2.542,2.541a2.823,2.823,0,0,1-3.994,0l-2.859-2.859a1.754,1.754,0,0,0-1.969-.336c-.415.193-.84.368-1.264.523a1.736,1.736,0,0,0-1.135,1.623v4.043A2.828,2.828,0,0,1,182.859,369.5Zm-9.56-10.274a2.868,2.868,0,0,1,1.2.265c.386.179.784.344,1.18.488a2.838,2.838,0,0,1,1.854,2.653v4.043a1.73,1.73,0,0,0,1.728,1.728h3.594a1.73,1.73,0,0,0,1.728-1.728v-4.043a2.837,2.837,0,0,1,1.855-2.652c.4-.144.792-.309,1.18-.488a2.853,2.853,0,0,1,3.2.556l2.859,2.859a1.768,1.768,0,0,0,2.444,0l2.542-2.542a1.728,1.728,0,0,0,0-2.444l-2.86-2.859a2.85,2.85,0,0,1-.556-3.2c.178-.385.343-.782.488-1.18a2.836,2.836,0,0,1,2.652-1.855h4.043a1.73,1.73,0,0,0,1.728-1.728V343.5a1.73,1.73,0,0,0-1.728-1.728H198.4a2.837,2.837,0,0,1-2.652-1.854c-.147-.4-.311-.8-.488-1.18a2.851,2.851,0,0,1,.556-3.2l2.86-2.86a1.728,1.728,0,0,0,0-2.444l-2.542-2.542a1.731,1.731,0,0,0-2.444,0l-2.859,2.86a2.85,2.85,0,0,1-3.205.556c-.381-.177-.778-.342-1.18-.489a2.836,2.836,0,0,1-1.855-2.652v-4.044a1.73,1.73,0,0,0-1.728-1.728h-3.594a1.73,1.73,0,0,0-1.728,1.728v4.044a2.836,2.836,0,0,1-1.854,2.652c-.4.147-.8.312-1.18.489a2.849,2.849,0,0,1-3.2-.556l-2.86-2.86a1.731,1.731,0,0,0-2.444,0l-2.541,2.542a1.727,1.727,0,0,0,0,2.444l2.859,2.86a2.85,2.85,0,0,1,.556,3.2c-.177.383-.342.779-.489,1.181a2.835,2.835,0,0,1-2.652,1.854h-4.043a1.73,1.73,0,0,0-1.728,1.728v3.594a1.73,1.73,0,0,0,1.728,1.728h4.043a2.836,2.836,0,0,1,2.652,1.854c.146.4.31.8.488,1.18a2.849,2.849,0,0,1-.556,3.2l-2.859,2.859a1.727,1.727,0,0,0,0,2.444l2.541,2.542a1.769,1.769,0,0,0,2.444,0l2.86-2.859A2.826,2.826,0,0,1,173.3,359.226Zm7.763-1.2A12.728,12.728,0,1,1,193.79,345.3,12.743,12.743,0,0,1,181.062,358.026Zm0-24.36A11.632,11.632,0,1,0,192.693,345.3,11.645,11.645,0,0,0,181.062,333.665Z" transform="translate(-156.859 -321.095)" fill="#fff"/>
            </g>
          </g>
        </g>
        <g id="Group_27" data-name="Group 27" transform="translate(0 30.605)">
          <g id="Group_22" data-name="Group 22" transform="translate(144.331 61.906)" opacity="0.81">
            <path id="Path_16" data-name="Path 16" d="M410.09,300.018h-7.147a.548.548,0,0,1,0-1.1h7.147a.548.548,0,1,1,0,1.1Z" transform="translate(-370.204 -284.387)" fill="#fff"/>
            <path id="Path_17" data-name="Path 17" d="M410.09,321.5h-7.147a.548.548,0,0,1,0-1.1h7.147a.548.548,0,0,1,0,1.1Z" transform="translate(-370.204 -294.093)" fill="#fff"/>
            <g id="Group_21" data-name="Group 21">
              <g id="Group_20" data-name="Group 20">
                <g id="Group_19" data-name="Group 19">
                  <path id="Path_18" data-name="Path 18" d="M388.61,311.709H345.159a1.489,1.489,0,0,1-1.487-1.487V273.894a1.488,1.488,0,0,1,1.487-1.486H388.61a1.488,1.488,0,0,1,1.487,1.486v36.328A1.488,1.488,0,0,1,388.61,311.709Zm-43.451-38.2a.391.391,0,0,0-.39.39v36.328a.391.391,0,0,0,.39.39H388.61a.391.391,0,0,0,.39-.39V273.894a.391.391,0,0,0-.39-.39Z" transform="translate(-343.672 -272.408)" fill="#fff"/>
                  <path id="Path_19" data-name="Path 19" d="M388.61,311.709H345.159a1.489,1.489,0,0,1-1.487-1.487V273.894a1.488,1.488,0,0,1,1.487-1.486H388.61a1.488,1.488,0,0,1,1.487,1.486v36.328A1.488,1.488,0,0,1,388.61,311.709Zm-43.451-38.2a.391.391,0,0,0-.39.39v36.328a.391.391,0,0,0,.39.39H388.61a.391.391,0,0,0,.39-.39V273.894a.391.391,0,0,0-.39-.39Z" transform="translate(-343.672 -272.408)" fill="#fff" opacity="0.66"/>
                </g>
              </g>
              <path id="Path_20" data-name="Path 20" d="M387.912,289.592H353.857a.548.548,0,1,1,0-1.1h34.055a.548.548,0,1,1,0,1.1Z" transform="translate(-348.026 -279.677)" fill="#fff"/>
              <path id="Path_21" data-name="Path 21" d="M387.912,310.443H353.857a.548.548,0,0,1,0-1.1h34.055a.548.548,0,0,1,0,1.1Z" transform="translate(-348.026 -289.098)" fill="#fff"/>
              <path id="Path_22" data-name="Path 22" d="M372.218,300.018h-18.36a.548.548,0,1,1,0-1.1h18.36a.548.548,0,0,1,0,1.1Z" transform="translate(-348.026 -284.387)" fill="#fff"/>
              <path id="Path_23" data-name="Path 23" d="M372.218,321.5h-18.36a.548.548,0,0,1,0-1.1h18.36a.548.548,0,0,1,0,1.1Z" transform="translate(-348.026 -294.093)" fill="#fff"/>
              <path id="Path_24" data-name="Path 24" d="M366.239,331.452H353.857a.548.548,0,1,1,0-1.1h12.382a.548.548,0,1,1,0,1.1Z" transform="translate(-348.026 -298.59)" fill="#fff"/>
            </g>
          </g>
          <g id="Group_26" data-name="Group 26" opacity="0.81">
            <path id="Path_25" data-name="Path 25" d="M155.663,190.656h-8.108a.548.548,0,1,1,0-1.1h8.108a.548.548,0,1,1,0,1.1Z" transform="translate(-110.485 -173.07)" fill="#fff"/>
            <path id="Path_26" data-name="Path 26" d="M155.663,215.029h-8.108a.548.548,0,0,1,0-1.1h8.108a.548.548,0,0,1,0,1.1Z" transform="translate(-110.485 -184.082)" fill="#fff"/>
            <g id="Group_25" data-name="Group 25">
              <g id="Group_24" data-name="Group 24">
                <g id="Group_23" data-name="Group 23">
                  <path id="Path_27" data-name="Path 27" d="M131.42,203.919H81.87a1.488,1.488,0,0,1-1.486-1.486V160.965a1.488,1.488,0,0,1,1.486-1.486h49.55a1.488,1.488,0,0,1,1.486,1.486v41.468A1.488,1.488,0,0,1,131.42,203.919ZM81.87,160.575a.39.39,0,0,0-.39.39v41.468a.39.39,0,0,0,.39.39h49.55a.39.39,0,0,0,.39-.39V160.965a.39.39,0,0,0-.39-.39Z" transform="translate(-80.384 -159.479)" fill="#fff"/>
                  <path id="Path_28" data-name="Path 28" d="M131.42,203.919H81.87a1.488,1.488,0,0,1-1.486-1.486V160.965a1.488,1.488,0,0,1,1.486-1.486h49.55a1.488,1.488,0,0,1,1.486,1.486v41.468A1.488,1.488,0,0,1,131.42,203.919ZM81.87,160.575a.39.39,0,0,0-.39.39v41.468a.39.39,0,0,0,.39.39h49.55a.39.39,0,0,0,.39-.39V160.965a.39.39,0,0,0-.39-.39Z" transform="translate(-80.384 -159.479)" fill="#fff" opacity="0.66"/>
                </g>
              </g>
              <path id="Path_29" data-name="Path 29" d="M130.5,178.827H91.865a.548.548,0,0,1,0-1.1H130.5a.548.548,0,0,1,0,1.1Z" transform="translate(-85.324 -167.725)" fill="#fff"/>
              <path id="Path_30" data-name="Path 30" d="M130.5,202.484H91.865a.548.548,0,0,1,0-1.1H130.5a.548.548,0,0,1,0,1.1Z" transform="translate(-85.324 -178.414)" fill="#fff"/>
              <path id="Path_31" data-name="Path 31" d="M112.7,190.656H91.865a.548.548,0,0,1,0-1.1H112.7a.548.548,0,1,1,0,1.1Z" transform="translate(-85.324 -173.07)" fill="#fff"/>
              <path id="Path_32" data-name="Path 32" d="M112.7,215.029H91.865a.548.548,0,0,1,0-1.1H112.7a.548.548,0,0,1,0,1.1Z" transform="translate(-85.324 -184.082)" fill="#fff"/>
              <path id="Path_33" data-name="Path 33" d="M105.913,226.32H91.865a.548.548,0,0,1,0-1.1h14.048a.548.548,0,0,1,0,1.1Z" transform="translate(-85.324 -189.183)" fill="#fff"/>
            </g>
          </g>
        </g>
      </g>
      <g id="Group_34" data-name="Group 34" transform="translate(0 62.663)">
        <g id="Group_30" data-name="Group 30" transform="translate(127.846 0)">
          <g id="Group_29" data-name="Group 29">
            <path id="Path_34" data-name="Path 34" d="M366.978,158.019H342.339a2.642,2.642,0,0,0-2.444,2.005l-.816,2.708a2.643,2.643,0,0,1-2.444,2.005H301.36a2.808,2.808,0,0,0-2.588,2.986h0v39.937a2.808,2.808,0,0,0,2.588,2.987h65.618a2.881,2.881,0,0,0,2.763-2.987V161.006A2.882,2.882,0,0,0,366.978,158.019Z" transform="translate(-298.772 -158.019)" fill="#3e479b"/>
            <path id="Path_35" data-name="Path 35" d="M341.805,167.158l.872-2.708a2.786,2.786,0,0,1,2.609-2.005h21.692a2.882,2.882,0,0,1,2.763,2.987v46.656a2.881,2.881,0,0,1-2.763,2.986H301.535a2.881,2.881,0,0,1-2.763-2.986V172.15a2.881,2.881,0,0,1,2.763-2.987H339.2A2.787,2.787,0,0,0,341.805,167.158Z" transform="translate(-298.772 -160.019)" fill="#6d6cd4"/>
            <path id="Path_36" data-name="Path 36" d="M346.77,172.4l.821-2.553a2.627,2.627,0,0,1,2.46-1.89H370.5a2.716,2.716,0,0,1,2.6,2.815v43.975a2.716,2.716,0,0,1-2.6,2.815H308.812a2.716,2.716,0,0,1-2.6-2.815V177.107a2.716,2.716,0,0,1,2.6-2.815h35.5A2.627,2.627,0,0,0,346.77,172.4Z" transform="translate(-302.132 -162.51)" fill="#fff" opacity="0.12"/>
          </g>
          <path id="Path_37" data-name="Path 37" d="M400.8,238.807H384.613a.548.548,0,1,1,0-1.1H400.8a1.9,1.9,0,0,0,1.894-1.895V222.974a.548.548,0,1,1,1.1,0v12.842A3,3,0,0,1,400.8,238.807Z" transform="translate(-337.309 -187.119)" fill="#fff"/>
        </g>
        <g id="Group_33" data-name="Group 33" transform="translate(0 45.421)">
          <g id="Group_32" data-name="Group 32">
            <g id="Group_31" data-name="Group 31">
              <path id="Path_38" data-name="Path 38" d="M68.336,240.875h24.8a2.745,2.745,0,0,1,2.46,2.256l.822,3.046a2.745,2.745,0,0,0,2.46,2.255h35.5c1.438,0,2.6,1.5,2.6,3.359h0v44.925c0,1.855-1.166,3.359-2.6,3.359H68.336a3.111,3.111,0,0,1-2.781-3.359V244.234A3.111,3.111,0,0,1,68.336,240.875Z" transform="translate(-65.555 -240.875)" fill="#f28393"/>
              <path id="Path_39" data-name="Path 39" d="M93.671,251.156l-.877-3.046a2.873,2.873,0,0,0-2.627-2.256H68.336a3.111,3.111,0,0,0-2.781,3.359V301.7a3.111,3.111,0,0,0,2.781,3.359H134.2a3.111,3.111,0,0,0,2.781-3.359V256.771a3.111,3.111,0,0,0-2.781-3.359H96.3A2.872,2.872,0,0,1,93.671,251.156Z" transform="translate(-65.555 -243.125)" fill="#fff" opacity="0.12"/>
              <path id="Path_40" data-name="Path 40" d="M92.057,257.054l-.827-2.871a2.707,2.707,0,0,0-2.476-2.126H68.176a2.933,2.933,0,0,0-2.621,3.166v49.468a2.933,2.933,0,0,0,2.621,3.166h62.083a2.932,2.932,0,0,0,2.621-3.166V262.347a2.933,2.933,0,0,0-2.621-3.167H94.532A2.707,2.707,0,0,1,92.057,257.054Z" transform="translate(-65.555 -245.927)" fill="#fff" opacity="0.12"/>
            </g>
          </g>
          <path id="Path_41" data-name="Path 41" d="M74.394,267.789a.522.522,0,0,1-.491-.548v-7.609a1.781,1.781,0,0,1,1.673-1.869H85.8a.552.552,0,0,1,0,1.1H75.576a.736.736,0,0,0-.691.773v7.609A.522.522,0,0,1,74.394,267.789Z" transform="translate(-69.327 -248.505)" fill="#fff"/>
        </g>
      </g>
      <g id="Group_49" data-name="Group 49" transform="translate(33.635 0)">
        <g id="Group_42" data-name="Group 42" transform="translate(12.565)">
          <g id="Group_36" data-name="Group 36" transform="translate(0 15.597)">
            <g id="Group_35" data-name="Group 35">
              <rect id="Rectangle_2" data-name="Rectangle 2" width="112.811" height="42.364" rx="21.182" transform="translate(0 26.551)" fill="#c5d9ff"/>
              <circle id="Ellipse_9" data-name="Ellipse 9" cx="29.79" cy="29.79" r="29.79" transform="translate(26.615)" fill="#599af2"/>
            </g>
          </g>
          <g id="Group_37" data-name="Group 37">
            <rect id="Rectangle_3" data-name="Rectangle 3" width="112.811" height="42.364" rx="21.182" transform="translate(0 35.907)" fill="#599af2"/>
            <circle id="Ellipse_10" data-name="Ellipse 10" cx="29.79" cy="29.79" r="29.79" transform="translate(17.259 23.575) rotate(-23.309)" fill="#599af2"/>
          </g>
          <g id="Group_39" data-name="Group 39" opacity="0.35">
            <g id="Group_38" data-name="Group 38">
              <rect id="Rectangle_4" data-name="Rectangle 4" width="112.811" height="42.364" rx="21.182" transform="translate(0 35.907)" fill="#ecf1f7"/>
              <circle id="Ellipse_11" data-name="Ellipse 11" cx="29.79" cy="29.79" r="29.79" transform="translate(17.259 23.575) rotate(-23.309)" fill="#ecf1f7"/>
            </g>
          </g>
          <g id="Group_41" data-name="Group 41" transform="translate(39.852 33.373)">
            <g id="Group_40" data-name="Group 40" transform="translate(8.217)">
              <path id="Path_42" data-name="Path 42" d="M238.89,114.8a1.37,1.37,0,0,1-.96-2.347l7.995-7.859,7.868,7.868a1.37,1.37,0,1,1-1.938,1.938l-5.946-5.946-6.057,5.954A1.365,1.365,0,0,1,238.89,114.8Z" transform="translate(-237.52 -104.589)" fill="#fff"/>
              <path id="Path_43" data-name="Path 43" d="M251.6,126.157a1.371,1.371,0,0,1-1.37-1.37V106.979a1.37,1.37,0,0,1,2.741,0v17.807A1.37,1.37,0,0,1,251.6,126.157Z" transform="translate(-243.261 -105.05)" fill="#fff"/>
            </g>
            <path id="Path_44" data-name="Path 44" d="M252.038,146.771H225.926a3.4,3.4,0,0,1-3.395-3.395v-9.486a1.37,1.37,0,0,1,2.741,0v9.486a.655.655,0,0,0,.654.654h26.112a.86.86,0,0,0,.859-.858v-9.282a1.37,1.37,0,0,1,2.741,0v9.282A3.6,3.6,0,0,1,252.038,146.771Z" transform="translate(-222.531 -117.208)" fill="#fff"/>
          </g>
        </g>
        <g id="Group_44" data-name="Group 44" transform="translate(0 68.408)">
          <path id="Path_45" data-name="Path 45" d="M242.6,256.74l-74.731,24.691a3.485,3.485,0,0,1-4.4-2.216L138.78,204.485a3.485,3.485,0,0,1,2.216-4.4l74.732-24.691a3.484,3.484,0,0,1,4.4,2.216l24.691,74.731A3.485,3.485,0,0,1,242.6,256.74Z" transform="translate(-132.194 -171.533)" fill="#4c65ba" opacity="0.36"/>
          <rect id="Rectangle_5" data-name="Rectangle 5" width="85.674" height="85.674" rx="6.357" transform="translate(0 26.877) rotate(-18.283)" fill="#fff"/>
          <g id="Group_43" data-name="Group 43" transform="translate(9.17 9.232)">
            <rect id="Rectangle_6" data-name="Rectangle 6" width="71.082" height="71.082" transform="translate(0 22.3) rotate(-18.283)" fill="#c5d9ff"/>
            <path id="Path_46" data-name="Path 46" d="M179.112,303.962l-5.049-15.281,7.385-17.8a5.11,5.11,0,0,1,6.262-2.935l13.67,4.246a1.825,1.825,0,0,0,2.112-.8l11.381-18.941a9.457,9.457,0,0,1,11.8-3.8l12.534,5.392.116.351,8.841,26.761-.781.257Zm-3.3-15.215,4.341,13.138L246.089,280.1l-8.21-24.847-11.855-5.1a7.806,7.806,0,0,0-9.743,3.14L204.9,272.235a3.465,3.465,0,0,1-4.009,1.529l-13.669-4.246a3.472,3.472,0,0,0-4.256,1.994Z" transform="translate(-157.386 -213.598)" fill="#fff" opacity="0.47"/>
            <path id="Path_47" data-name="Path 47" d="M217.164,239.756a8.751,8.751,0,1,1,2.738-.443A8.763,8.763,0,0,1,217.164,239.756Zm-.012-15.852a7.1,7.1,0,1,0,6.75,4.876A7.06,7.06,0,0,0,217.152,223.9Z" transform="translate(-172.904 -202.021)" fill="#fff" opacity="0.47"/>
          </g>
        </g>
        <g id="Group_46" data-name="Group 46" transform="translate(67.767 98.445)">
          <rect id="Rectangle_7" data-name="Rectangle 7" width="65.311" height="65.311" rx="6.357" transform="translate(3.315 3.315)" fill="#4c65ba" opacity="0.36"/>
          <rect id="Rectangle_8" data-name="Rectangle 8" width="65.311" height="65.311" rx="6.357" fill="#fff"/>
          <g id="Group_45" data-name="Group 45" transform="translate(4.777 5.562)">
            <rect id="Rectangle_9" data-name="Rectangle 9" width="54.187" height="54.187" transform="translate(0.747)" fill="#6081a8" opacity="0.79"/>
            <path id="Path_48" data-name="Path 48" d="M315.079,307.714H259.247V295.178L268.9,284a4.092,4.092,0,0,1,5.5-.658l8.878,6.343a1.2,1.2,0,0,0,1.48-.067l12.768-10.988a7.4,7.4,0,0,1,9.71.071l7.849,6.959Zm-54.187-1.645h52.543V286.4l-7.3-6.468a5.756,5.756,0,0,0-7.546-.056l-12.768,10.988a2.837,2.837,0,0,1-3.508.159l-8.879-6.342a2.455,2.455,0,0,0-3.3.394l-9.249,10.71Z" transform="translate(-259.247 -253.055)" fill="#fff" opacity="0.47"/>
            <path id="Path_49" data-name="Path 49" d="M310.469,262.78a6.864,6.864,0,1,1,6.864-6.864A6.871,6.871,0,0,1,310.469,262.78Zm0-12.083a5.219,5.219,0,1,0,5.219,5.219A5.225,5.225,0,0,0,310.469,250.7Z" transform="translate(-279.289 -240.493)" fill="#fff" opacity="0.47"/>
          </g>
        </g>
        <g id="Group_48" data-name="Group 48" transform="translate(37.455 130.682)">
          <rect id="Rectangle_10" data-name="Rectangle 10" width="42.19" height="42.19" rx="6.357" transform="translate(2.756 16.057) rotate(-20.54)" fill="#4c65ba" opacity="0.36"/>
          <rect id="Rectangle_11" data-name="Rectangle 11" width="42.19" height="42.19" rx="6.357" transform="translate(0 14.803) rotate(-20.54)" fill="#fff"/>
          <g id="Group_47" data-name="Group 47" transform="translate(4.603 4.634)">
            <rect id="Rectangle_12" data-name="Rectangle 12" width="35.004" height="35.004" transform="matrix(0.936, -0.351, 0.351, 0.936, 0, 12.282)" fill="#599af2"/>
            <path id="Path_50" data-name="Path 50" d="M222.641,350.03l-2.982-7.958L223,333.025a2.932,2.932,0,0,1,3.524-1.824l6.808,1.824a.482.482,0,0,0,.549-.235l5.232-9.541a5.08,5.08,0,0,1,6.25-2.289l6.447,2.478,5.145,13.733Zm-1.227-7.962,2.189,5.845,31.238-11.7-4.309-11.5-5.757-2.212a3.425,3.425,0,0,0-4.218,1.545l-5.233,9.541a2.123,2.123,0,0,1-2.416,1.033L226.1,332.79a1.292,1.292,0,0,0-1.556.8Z" transform="translate(-210.874 -304.141)" fill="#fff" opacity="0.47"/>
            <path id="Path_51" data-name="Path 51" d="M239.7,318.223a4.725,4.725,0,1,1,4.419-6.383h0a4.725,4.725,0,0,1-4.419,6.383Zm-.009-7.806a3.081,3.081,0,1,0,2.888,2A3.072,3.072,0,0,0,239.7,310.417Z" transform="translate(-217.793 -298.784)" fill="#fff" opacity="0.47"/>
          </g>
        </g>
      </g>
    </g>
  </g>
</svg>
