<svg xmlns="http://www.w3.org/2000/svg" width="58.148" height="58.146" viewBox="0 0 58.148 58.146">
  <g id="Group_1955" data-name="Group 1955" transform="translate(1 1)">
    <g id="Group_1954" data-name="Group 1954">
      <path id="Path_1020" data-name="Path 1020" d="M460.538,786.23a28.06,28.06,0,0,0-10.247,54.188V823.592h-7.058v-8.037h7.058V809.43c0-6.967,4.15-10.816,10.5-10.816a42.77,42.77,0,0,1,6.223.543V806h-3.505c-3.453,0-4.53,2.141-4.53,4.341v5.214h7.709l-1.233,8.037H458.98V842.3c.518.03,1.033.079,1.558.079a28.073,28.073,0,1,0,0-56.146Z" transform="translate(-432.465 -786.23)" fill="none" stroke="#f47a69" stroke-miterlimit="10" stroke-width="2"/>
    </g>
  </g>
</svg>
