<svg id="icons-08" xmlns="http://www.w3.org/2000/svg" width="35.646" height="35.7" viewBox="0 0 35.646 35.7">
  <path id="Path_962" data-name="Path 962" d="M53.862,23.944a.522.522,0,0,0,.517-.522V18.367A2.321,2.321,0,0,1,56.7,16.048H78.954a3.345,3.345,0,0,0-.939,2.319V35.842a.524.524,0,0,0,1.046,0V19.995h4.763a.923.923,0,0,0,.923-.923v-.658A3.4,3.4,0,0,0,81.449,15H56.7a3.369,3.369,0,0,0-3.358,3.367v5.055A.522.522,0,0,0,53.862,23.944Zm29.849-5.53v.537H79.07v-.584a2.319,2.319,0,0,1,2.361-2.319,2.352,2.352,0,0,1,2.279,2.366Zm0,0" transform="translate(-50.116 -15)" fill="#fff"/>
  <path id="Path_963" data-name="Path 963" d="M74.125,80.273l-2.453-1.28a.785.785,0,0,0-.361-.087H67.837l.016-5.432a.513.513,0,0,0-.152-.37.526.526,0,0,0-.37-.154h-.018a.524.524,0,0,0-.524.524v5.432H53.5a.522.522,0,0,0,0,1.044H70.361v1.96H62.148v-.085a.716.716,0,0,0-.72-.727H46.711v-1.16H51.26a.522.522,0,0,0,0-1.044H43.143V61.072a.522.522,0,1,0-1.044,0V78.895H40.354a1.438,1.438,0,0,0-1.474,1.4v1.249a1.44,1.44,0,0,0,1.474,1.4h.573a3.369,3.369,0,0,0,3.358,3.144h20.24a3.4,3.4,0,0,0,3.3-3.144h3.485a.787.787,0,0,0,.361-.089l2.453-1.278a.738.738,0,0,0,0-1.316Zm-28.45.825H44.559v-1.16h1.115Zm-4.04,0a.716.716,0,0,0-.714.716V81.9h-.566a.4.4,0,0,1-.428-.355V80.3a.4.4,0,0,1,.428-.357h3.155V81.1Zm2.651,3.949a2.323,2.323,0,0,1-2.321-2.321v-.582H61.1v.582a3.345,3.345,0,0,0,.928,2.321Zm20.222,0a2.326,2.326,0,0,1-2.35-2.1H66.78a2.348,2.348,0,0,1-2.266,2.1Zm6.9-3.233V80.03l1.721.892Zm0,0" transform="translate(-38.88 -50.393)" fill="#fff"/>
  <path id="Path_964" data-name="Path 964" d="M67.286,34.944H70.04a1.07,1.07,0,0,0,1.068-1.068V31.118A1.07,1.07,0,0,0,70.04,30.05H67.286a1.068,1.068,0,0,0-1.066,1.068v2.756A1.068,1.068,0,0,0,67.286,34.944Zm-.02-3.824a.02.02,0,0,1,.02-.022H70.04a.02.02,0,0,1,.022.022v2.754a.02.02,0,0,1-.022.022H67.286a.02.02,0,0,1-.02-.022Zm0,0" transform="translate(-60.124 -26.694)" fill="#fff"/>
  <path id="Path_965" data-name="Path 965" d="M71.108,56.442l1.307-1.224a.522.522,0,1,0-.711-.765l-1.006.937a1.075,1.075,0,0,0-.669-.223H67.286a1.068,1.068,0,0,0-1.066,1.068v2.749a1.068,1.068,0,0,0,1.066,1.057H70.04a1.068,1.068,0,0,0,1.068-1.066ZM70.04,59H67.286a.02.02,0,0,1-.02-.02V56.225a.02.02,0,0,1,.02-.022H69.83l-1.153,1.075-.172-.174a.522.522,0,0,0-.743.734l.526.535a.517.517,0,0,0,.372.156.524.524,0,0,0,.357-.14l1.044-.972v1.561a.02.02,0,0,1-.022.02Zm0,0" transform="translate(-60.124 -45.547)" fill="#fff"/>
  <path id="Path_966" data-name="Path 966" d="M71.108,87.226A1.068,1.068,0,0,0,70.04,86.16H67.286a1.068,1.068,0,0,0-1.066,1.066v2.758a1.068,1.068,0,0,0,1.066,1.066H70.04a1.068,1.068,0,0,0,1.068-1.066Zm-1.046,2.758a.022.022,0,0,1-.022.022H67.286a.022.022,0,0,1-.02-.022V87.226a.022.022,0,0,1,.02-.022H70.04a.022.022,0,0,1,.022.022Zm0,0" transform="translate(-60.124 -70.292)" fill="#fff"/>
  <path id="Path_967" data-name="Path 967" d="M70.024,114.21H67.27a1.068,1.068,0,0,0-1.07,1.068v2.758a1.068,1.068,0,0,0,1.07,1.066h2.754a1.07,1.07,0,0,0,1.068-1.068v-2.756a1.068,1.068,0,0,0-1.068-1.066Zm.022,3.824a.02.02,0,0,1-.022.022H67.27a.02.02,0,0,1-.02-.022v-2.756a.02.02,0,0,1,.02-.02h2.754a.02.02,0,0,1,.022.02Zm0,0" transform="translate(-60.108 -92.088)" fill="#fff"/>
  <path id="Path_968" data-name="Path 968" d="M108.98,32.486h-12.9a.524.524,0,0,0,0,1.046h12.9a.524.524,0,1,0,0-1.046Zm0,0" transform="translate(-82.947 -28.586)" fill="#fff"/>
  <path id="Path_969" data-name="Path 969" d="M108.98,44.856h-12.9a.524.524,0,0,0,0,1.046h12.9a.524.524,0,1,0,0-1.046Zm0,0" transform="translate(-82.947 -38.198)" fill="#fff"/>
  <path id="Path_970" data-name="Path 970" d="M108.869,60.55h-12.9a.522.522,0,0,0,0,1.044h12.9a.522.522,0,0,0,0-1.044Zm0,0" transform="translate(-82.836 -50.393)" fill="#fff"/>
  <path id="Path_971" data-name="Path 971" d="M108.98,72.906h-12.9a.524.524,0,0,0,0,1.046h12.9a.524.524,0,1,0,0-1.046Zm0,0" transform="translate(-82.947 -59.993)" fill="#fff"/>
  <path id="Path_972" data-name="Path 972" d="M108.869,88.6h-12.9a.522.522,0,0,0,0,1.044h12.9a.522.522,0,0,0,0-1.044Zm0,0" transform="translate(-82.836 -72.188)" fill="#fff"/>
  <path id="Path_973" data-name="Path 973" d="M108.869,101h-12.9a.522.522,0,0,0,0,1.044h12.9a.522.522,0,0,0,0-1.044Zm0,0" transform="translate(-82.836 -81.823)" fill="#fff"/>
  <path id="Path_974" data-name="Path 974" d="M108.98,116.646h-12.9a.524.524,0,0,0,0,1.046h12.9a.524.524,0,1,0,0-1.046Zm0,0" transform="translate(-82.947 -93.98)" fill="#fff"/>
  <path id="Path_975" data-name="Path 975" d="M108.98,129h-12.9a.524.524,0,0,0,0,1.046h12.9a.524.524,0,1,0,0-1.046Zm0,0" transform="translate(-82.947 -103.576)" fill="#fff"/>
</svg>
