<svg xmlns="http://www.w3.org/2000/svg" width="32.069" height="36.299" viewBox="0 0 32.069 36.299">
  <path id="icons-07" d="M77.679,32.346v-10a1.416,1.416,0,0,0-1.414-1.414H75.055V15.058a1.42,1.42,0,0,0-1.418-1.418H52.342a1.423,1.423,0,0,0-1.42,1.418v8.634H49.806a1.414,1.414,0,0,0-1.414,1.414v4.2a1.5,1.5,0,0,0-1.463,1.5V47.567A2.377,2.377,0,0,0,49.3,49.939H76.627A2.375,2.375,0,0,0,79,47.567V33.836A1.5,1.5,0,0,0,77.679,32.346ZM76.266,22a.35.35,0,0,1,.35.35v9.985H75.055V22Zm-5.735.274L73.258,25H70.531ZM49.793,24.756h1.115v4.551H49.445v-4.2a.35.35,0,0,1,.35-.35ZM77.94,47.567a1.309,1.309,0,0,1-1.309,1.309H49.294a1.311,1.311,0,0,1-1.311-1.309V30.808a.446.446,0,0,1,.446-.446h10.48a.337.337,0,0,1,.207.074L62.4,33.08a1.391,1.391,0,0,0,.874.31h5.595a.533.533,0,1,0,0-1.064h-5.6a.337.337,0,0,1-.207-.074l-3.28-2.636a1.4,1.4,0,0,0-.874-.31H51.989v-7.47a.33.33,0,0,1,.328-.33h4.46a.533.533,0,0,0,0-1.064h-4.46a1.434,1.434,0,0,0-.328.04V18.445a.355.355,0,0,1,.352-.355H67.728a.533.533,0,0,0,0-1.064H52.342a1.431,1.431,0,0,0-.355.047V15.058a.355.355,0,0,1,.355-.352H73.637a.355.355,0,0,1,.355.352v2.007a1.432,1.432,0,0,0-.355-.047H70a.533.533,0,0,0,0,1.064h3.639a.355.355,0,0,1,.355.355v5.8l-3.461-3.465a1.115,1.115,0,0,0-.789-.326H59.049a.533.533,0,1,0,0,1.064H69.467V25.3a.776.776,0,0,0,.774.774h3.751v6.264H71.133a.533.533,0,1,0,0,1.064h6.362a.446.446,0,0,1,.446.446Zm0,0" transform="translate(-46.93 -13.64)" fill="#fff"/>
</svg>
