<svg xmlns="http://www.w3.org/2000/svg" width="58.147" height="58.147" viewBox="0 0 58.147 58.147">
  <g id="Group_1958" data-name="Group 1958" transform="translate(1 1)">
    <g id="Group_1957" data-name="Group 1957" transform="translate(0)">
      <g id="Group_1956" data-name="Group 1956" transform="translate(10.318 9.083)">
        <path id="Path_1021" data-name="Path 1021" d="M484.924,803.017h7.266v23.342h-7.266Zm3.635-11.6a4.207,4.207,0,1,1-4.213,4.2,4.206,4.206,0,0,1,4.213-4.2" transform="translate(-484.346 -791.417)" fill="none" stroke="#f47a69" stroke-miterlimit="10" stroke-width="2"/>
        <path id="Path_1022" data-name="Path 1022" d="M491.426,798.29h6.96v3.192h.1a7.626,7.626,0,0,1,6.871-3.77c7.345,0,8.7,4.831,8.7,11.117v12.8H506.8V810.284c0-2.709-.053-6.191-3.772-6.191-3.777,0-4.353,2.949-4.353,5.994v11.546h-7.253Z" transform="translate(-479.029 -786.69)" fill="none" stroke="#f47a69" stroke-miterlimit="10" stroke-width="2"/>
      </g>
      <ellipse id="Ellipse_1415" data-name="Ellipse 1415" cx="28.074" cy="28.074" rx="28.074" ry="28.074" fill="none" stroke="#f47a69" stroke-miterlimit="10" stroke-width="2"/>
    </g>
  </g>
</svg>
