<svg width="23" height="23" viewBox="0 0 23 23" fill="none" xmlns="http://www.w3.org/2000/svg">
<g clip-path="url(#clip0_641_1172)">
<path d="M22.5646 7.69615C22.6043 7.66549 22.6519 7.64652 22.7018 7.64136C22.7518 7.6362 22.8022 7.64505 22.8474 7.66693C22.8926 7.68881 22.9308 7.72285 22.9578 7.76523C22.9847 7.80761 22.9994 7.85666 23 7.90688V17.0931C23 17.6651 22.7728 18.2136 22.3683 18.6181C21.9639 19.0225 21.4153 19.2498 20.8433 19.2498H2.15575C1.58393 19.2495 1.03561 19.0222 0.63135 18.6178C0.227094 18.2133 1.84441e-07 17.6649 2.37883e-07 17.0931V7.91154C-6.69959e-05 7.86102 0.014119 7.8115 0.0409284 7.76868C0.0677378 7.72586 0.106083 7.69147 0.151559 7.66946C0.197035 7.64746 0.247797 7.63872 0.298013 7.64427C0.348229 7.64982 0.395862 7.66941 0.43544 7.70082C1.44152 8.48218 2.77581 9.47241 7.35773 12.8039C8.306 13.4958 9.9051 14.9485 11.4995 14.942C13.1033 14.955 14.7341 13.4688 15.646 12.8039C20.2279 9.47521 21.5575 8.47752 22.5646 7.69615ZM11.4995 13.4995C12.542 13.5172 14.0422 12.1876 14.7966 11.6394C20.7575 7.31386 21.2116 6.93623 22.586 5.85835C22.715 5.75755 22.8192 5.62864 22.8908 5.48143C22.9624 5.33422 22.9994 5.17261 22.9991 5.00892V4.15575C22.9988 3.58409 22.7716 3.03591 22.3674 2.63168C21.9632 2.22745 21.415 2.00025 20.8433 2H2.15575C1.58409 2.00025 1.03591 2.22745 0.631679 2.63168C0.22745 3.03591 0.000247338 3.58409 2.37883e-07 4.15575V5.00892C0.000123297 5.17253 0.0373605 5.33397 0.108909 5.48111C0.180457 5.62824 0.284451 5.75723 0.413062 5.85835C1.78745 6.9325 2.23781 7.31479 8.20529 11.6403C8.95776 12.1886 10.458 13.5182 11.4995 13.4995Z" fill="#FEFBFB"/>
</g>
<defs>
<clipPath id="clip0_641_1172">
<rect width="23" height="17.2498" fill="white" transform="translate(0 2)"/>
</clipPath>
</defs>
</svg>
