<svg id="Layer_30" data-name="Layer 30" xmlns="http://www.w3.org/2000/svg" width="15.912" height="19.887" viewBox="0 0 15.912 19.887">
  <path id="Path_516" data-name="Path 516" d="M176.033,175.913H161.449a.663.663,0,0,1-.59-.961,12.025,12.025,0,0,0,1.253-5.3V167.3a6.629,6.629,0,1,1,13.258,0v2.34a12.025,12.025,0,0,0,1.253,5.3.663.663,0,0,1-.59.974Zm-13.556-1.326h12.529a13.35,13.35,0,0,1-.961-4.952V167.3a5.3,5.3,0,0,0-10.606,0v2.34A13.351,13.351,0,0,1,162.477,174.587Z" transform="translate(-160.788 -158.678)" fill="#2d2a4b"/>
  <path id="Path_517" data-name="Path 517" d="M445.148,1008.144a3.314,3.314,0,0,1-3.314-3.314.663.663,0,0,1,1.326,0,1.989,1.989,0,0,0,.583,1.405,2.042,2.042,0,0,0,2.811,0,.666.666,0,0,1,.941.941A3.315,3.315,0,0,1,445.148,1008.144Z" transform="translate(-437.195 -988.257)" fill="#2d2a4b"/>
  <path id="Path_518" data-name="Path 518" d="M603.163,43.481a.663.663,0,0,1-.663-.663V40.83a.663.663,0,0,1,1.326,0v1.989A.663.663,0,0,1,603.163,43.481Z" transform="translate(-595.21 -40.167)" fill="#2d2a4b"/>
</svg>
