<svg id="share-iconfinder_share_publish_social_media_send_network_3994404" xmlns="http://www.w3.org/2000/svg" width="17.523" height="17.523" viewBox="0 0 17.523 17.523">
  <path id="Path_37" data-name="Path 37" d="M16.428,10.952a1.095,1.095,0,0,0-1.1,1.1v3.286H2.19V2.19H5.476a1.1,1.1,0,1,0,0-2.19H1.1A1.095,1.095,0,0,0,0,1.1V16.428a1.095,1.095,0,0,0,1.1,1.1H16.428a1.095,1.095,0,0,0,1.1-1.1V12.047a1.095,1.095,0,0,0-1.1-1.1Z" transform="translate(0 0)" fill="#2d2a4b"/>
  <path id="Path_38" data-name="Path 38" d="M45.568,0H41.316a1.063,1.063,0,0,0,0,2.126H43l-6.69,6.69a1.063,1.063,0,1,0,1.5,1.5l6.69-6.69V5.316a1.063,1.063,0,1,0,2.126,0V1.063A1.063,1.063,0,0,0,45.568,0Z" transform="translate(-29.109 0)" fill="#2d2a4b"/>
</svg>
