<svg xmlns="http://www.w3.org/2000/svg" width="19.994" height="18.654" viewBox="0 0 19.994 18.654">
  <path id="Polygon_137" data-name="Polygon 137" d="M10.074,2.619a1,1,0,0,1,1.882,0L13.48,6.86a1,1,0,0,0,.926.662l4.6.071a1,1,0,0,1,.567,1.812l-3.6,2.581a1,1,0,0,0-.369,1.119l1.338,4.159A1,1,0,0,1,15.434,18.4l-3.862-2.588a1,1,0,0,0-1.113,0L6.6,18.4a1,1,0,0,1-1.509-1.137L6.426,13.1a1,1,0,0,0-.369-1.119L2.46,9.405a1,1,0,0,1,.567-1.812l4.6-.071a1,1,0,0,0,.926-.662Z" transform="translate(-1.018 -0.957)" fill="none" stroke="#2d2a4b" stroke-linecap="round" stroke-linejoin="round" stroke-width="2"/>
</svg>
