<svg id="icons-04" xmlns="http://www.w3.org/2000/svg" width="36.388" height="37.488" viewBox="0 0 36.388 37.488">
  <path id="Path_923" data-name="Path 923" d="M137.9,82.814a1.652,1.652,0,0,0-2.156,0l-5.259,4.544a2.019,2.019,0,0,0-.309-.4,1.929,1.929,0,0,0-2.6-.124l-4.557,3.749a4.818,4.818,0,0,0-1.76,3.731v3.243a1.391,1.391,0,0,0-.48,1.055v5.317a.549.549,0,1,0,1.1,0V98.6a.3.3,0,0,1,.3-.3h6.689a.3.3,0,0,1,.3.3v5.317a.549.549,0,1,0,1.1,0V98.6a1.4,1.4,0,0,0-.739-1.23V94.925l1.248-.464a5.174,5.174,0,0,0,2.544-2.032l4.895-7.486a1.649,1.649,0,0,0-.3-2.137Zm-.623,1.538-4.892,7.478a4.1,4.1,0,0,1-2.011,1.6l-2.177.81a.549.549,0,0,0,.19,1.055h.026v1.908h-6.069V94.3a3.731,3.731,0,0,1,1.362-2.887l4.557-3.749a.844.844,0,0,1,1.132,1.248l-1.8,1.8a.547.547,0,1,0,.773.773l1.8-1.794a1.918,1.918,0,0,0,.551-1.1l5.734-4.955a.549.549,0,0,1,.815.715Zm0,0" transform="translate(-102.071 -67.029)" fill="#fff"/>
  <path id="Path_924" data-name="Path 924" d="M67.07,97.579V94.336a4.818,4.818,0,0,0-1.725-3.694.549.549,0,0,0-.705.839,3.723,3.723,0,0,1,1.335,2.86v2.9H59.906V95.336h.04a.549.549,0,0,0,.193-1.055l-2.179-.81a4.1,4.1,0,0,1-2.008-1.6l-4.892-7.488a.549.549,0,0,1,.815-.715l5.736,4.955a1.913,1.913,0,0,0,.549,1.1l1.786,1.8a.541.541,0,0,0,.388.161.528.528,0,0,0,.385-.161.546.546,0,0,0,0-.773l-1.8-1.8A.844.844,0,0,1,60.057,87.7L62.8,89.961a.549.549,0,1,0,.7-.847l-2.734-2.261a1.934,1.934,0,0,0-2.6.127,1.779,1.779,0,0,0-.306.4l-5.261-4.546a1.644,1.644,0,0,0-2.449,2.135l4.892,7.478a5.169,5.169,0,0,0,2.546,2.032l1.248.464v2.449a1.393,1.393,0,0,0-.731,1.238v5.317a.549.549,0,1,0,1.1,0V98.629a.3.3,0,0,1,.3-.3h6.689a.3.3,0,0,1,.3.3v5.317a.549.549,0,1,0,1.1,0V98.629a1.391,1.391,0,0,0-.48-1.055Zm0,0" transform="translate(-49.89 -67.055)" fill="#fff"/>
  <path id="Path_925" data-name="Path 925" d="M59.663,41.461A8.676,8.676,0,1,0,51,32.788,8.676,8.676,0,0,0,59.663,41.461Zm0-16.256a7.581,7.581,0,1,1-7.581,7.582A7.581,7.581,0,0,1,59.663,25.205Zm0,0" transform="translate(-50.707 -24.11)" fill="#fff"/>
  <path id="Path_926" data-name="Path 926" d="M70.678,50.4a1.641,1.641,0,0,0,2.3-.042l1.164-1.19a.55.55,0,0,0-.792-.765L72.2,49.6a.551.551,0,0,1-.77.013l-1.641-1.557.752-.792.639.6a.865.865,0,0,0,1.216-.037l3.19-3.272.792.765L75,46.734a.551.551,0,1,0,.792.768l1.538-1.583a.858.858,0,0,0-.013-1.214l-1.137-1.09a.863.863,0,0,0-1.224.018l-3.193,3.272-.641-.607a.86.86,0,0,0-1.214.032l-1.079,1.14a.858.858,0,0,0,.032,1.214Zm0,0" transform="translate(-63.659 -38.287)" fill="#fff"/>
  <path id="Path_927" data-name="Path 927" d="M129.6,41.46a8.681,8.681,0,0,0,5.573-2.029.549.549,0,0,0-.7-.839,7.565,7.565,0,1,1,1.454-1.625.547.547,0,0,0,.913.6A8.676,8.676,0,1,0,129.6,41.46Zm0,0" transform="translate(-102.181 -24.109)" fill="#fff"/>
  <path id="Path_928" data-name="Path 928" d="M145.153,40.938,143.9,39.653a.844.844,0,0,0-.6-.264.858.858,0,0,0-.61.243L140.7,41.574l-1.99-1.942a.834.834,0,0,0-.607-.243.852.852,0,0,0-.6.264l-1.256,1.288a.858.858,0,0,0,.016,1.211l1.929,1.884-1.924,1.881a.844.844,0,0,0-.264.6.855.855,0,0,0,.243.607l1.256,1.288a.855.855,0,0,0,.6.264h0a.844.844,0,0,0,.6-.245l1.989-1.942,1.99,1.942a.858.858,0,0,0,1.208,0l1.256-1.288a.858.858,0,0,0-.013-1.211l-1.918-1.9,1.929-1.884a.858.858,0,0,0,.013-1.211Zm-3.108,2.7a.546.546,0,0,0,0,.792l2.158,2.111-.921.924-2.2-2.148a.546.546,0,0,0-.765,0l-2.206,2.148-.921-.945,2.158-2.111a.546.546,0,0,0,0-.792l-2.158-2.111.921-.921,2.2,2.15a.551.551,0,0,0,.765,0l2.2-2.148.921.942Zm0,0" transform="translate(-113.279 -35.357)" fill="#fff"/>
</svg>
