<svg id="icons-05" xmlns="http://www.w3.org/2000/svg" width="41.559" height="37.346" viewBox="0 0 41.559 37.346">
  <path id="Path_929" data-name="Path 929" d="M169.773,100a.609.609,0,0,0-.609.609v13.254a2.488,2.488,0,0,1-2.486,2.486h-7.671a.609.609,0,0,0,0,1.215h7.671a3.706,3.706,0,0,0,3.7-3.7v-13.25a.607.607,0,0,0-.607-.609Zm0,0" transform="translate(-128.822 -80.224)" fill="#fff"/>
  <path id="Path_930" data-name="Path 930" d="M63.486,13.859H61.7v-.765a1.784,1.784,0,1,0-3.568,0v.765H56.288v-.765a1.784,1.784,0,0,0-3.568,0v.765H50.874v-.765a1.784,1.784,0,0,0-3.568,0v.765H45.46v-.765a1.784,1.784,0,0,0-3.568,0v.765H40.066v-.765a1.784,1.784,0,0,0-3.568,0v.765H34.654v-.765a1.784,1.784,0,0,0-3.568,0v.765H29.332a3.7,3.7,0,0,0-3.7,3.7v27.4a3.706,3.706,0,0,0,3.7,3.7h23.9a.609.609,0,1,0,0-1.215h-23.9a2.488,2.488,0,0,1-2.486-2.486V20.925H65.972V29.08a.609.609,0,1,0,1.215,0V17.558a3.7,3.7,0,0,0-3.7-3.7Zm-4.123-.765a.569.569,0,1,1,1.135,0v2.743a.569.569,0,1,1-1.135,0Zm-5.412,0a.569.569,0,1,1,1.135,0v2.743a.569.569,0,1,1-1.135,0Zm-5.412,0a.569.569,0,1,1,1.135,0v2.743a.569.569,0,1,1-1.135,0Zm-5.412,0a.569.569,0,1,1,1.135,0v1.371h0v1.371a.569.569,0,1,1-1.135,0Zm-5.412,0a.569.569,0,1,1,1.135,0v2.743a.569.569,0,1,1-1.135,0Zm-5.412,0a.569.569,0,1,1,1.135,0v1.371h0v1.371a.569.569,0,1,1-1.135,0Zm-5.459,6.62V17.558a2.488,2.488,0,0,1,2.486-2.484h1.757v.763a1.784,1.784,0,1,0,3.568,0v-.763H36.5v.763a1.784,1.784,0,1,0,3.568,0v-.763h1.846v.763a1.784,1.784,0,1,0,3.568,0v-.763h1.846v.763a1.784,1.784,0,1,0,3.568,0v-.763h1.846v.763a1.784,1.784,0,1,0,3.568,0v-.763h1.846v.763a1.784,1.784,0,1,0,3.568,0v-.763H63.51A2.489,2.489,0,0,1,66,17.558v2.156Zm0,0" transform="translate(-25.63 -11.31)" fill="#fff"/>
  <path id="Path_931" data-name="Path 931" d="M77.256,64.486V62.321A1.561,1.561,0,0,0,75.7,60.76H52.09a.609.609,0,0,0,0,1.215H75.7a.337.337,0,0,1,.337.334v2.165a.337.337,0,0,1-.337.334H45.379a.337.337,0,0,1-.337-.334V62.321a.337.337,0,0,1,.337-.334H49.5a.609.609,0,0,0,0-1.215H45.381a1.561,1.561,0,0,0-1.561,1.561V64.5a1.561,1.561,0,0,0,1.561,1.561H75.707A1.561,1.561,0,0,0,77.268,64.5Zm0,0" transform="translate(-39.764 -49.733)" fill="#fff"/>
  <path id="Path_932" data-name="Path 932" d="M113.072,93.321a1.251,1.251,0,0,0-1.249-1.251H109.7a1.251,1.251,0,0,0-1.249,1.251V94.9a1.251,1.251,0,0,0,1.249,1.251h2.125a1.251,1.251,0,0,0,1.249-1.251ZM111.859,94.9a.036.036,0,0,1-.036.036H109.7a.036.036,0,0,1-.033-.036V93.321a.036.036,0,0,1,.033-.036h2.125a.036.036,0,0,1,.036.036Zm0,0" transform="translate(-89.982 -74.062)" fill="#fff"/>
  <path id="Path_933" data-name="Path 933" d="M86.031,93.321a1.251,1.251,0,0,0-1.249-1.251H82.649A1.251,1.251,0,0,0,81.4,93.321V94.9a1.251,1.251,0,0,0,1.249,1.251h2.125A1.251,1.251,0,0,0,86.022,94.9ZM84.816,94.9a.036.036,0,0,1-.033.036H82.649a.036.036,0,0,1-.033-.036V93.321a.036.036,0,0,1,.033-.036h2.125a.036.036,0,0,1,.033.036Zm0,0" transform="translate(-68.964 -74.062)" fill="#fff"/>
  <path id="Path_934" data-name="Path 934" d="M59.021,93.321a1.251,1.251,0,0,0-1.249-1.251H55.641a1.253,1.253,0,0,0-1.251,1.251V94.9a1.253,1.253,0,0,0,1.251,1.251h2.125A1.251,1.251,0,0,0,59.015,94.9ZM57.806,94.9a.036.036,0,0,1-.033.036H55.641a.036.036,0,0,1-.036-.036V93.321a.036.036,0,0,1,.036-.036h2.125a.036.036,0,0,1,.033.036Zm0,0" transform="translate(-47.977 -74.062)" fill="#fff"/>
  <path id="Path_935" data-name="Path 935" d="M138.834,92.07h-2.125a1.251,1.251,0,0,0-1.249,1.251V94.9a1.251,1.251,0,0,0,1.249,1.251h2.125a1.253,1.253,0,0,0,1.251-1.251V93.321A1.253,1.253,0,0,0,138.834,92.07Zm.036,2.832a.036.036,0,0,1-.036.036h-2.125a.036.036,0,0,1-.033-.036V93.321a.036.036,0,0,1,.033-.036h2.125a.036.036,0,0,1,.036.036Zm0,0" transform="translate(-110.97 -74.062)" fill="#fff"/>
  <path id="Path_936" data-name="Path 936" d="M167.095,93.321a1.251,1.251,0,0,0-1.249-1.251h-2.125a1.253,1.253,0,0,0-1.251,1.251V94.9a1.253,1.253,0,0,0,1.251,1.251h2.125a1.251,1.251,0,0,0,1.249-1.251ZM165.879,94.9a.036.036,0,0,1-.033.036h-2.125a.036.036,0,0,1-.036-.036V93.321a.036.036,0,0,1,.036-.036h2.125a.036.036,0,0,1,.033.036Zm0,0" transform="translate(-131.957 -74.062)" fill="#fff"/>
  <path id="Path_937" data-name="Path 937" d="M113.072,118.189a1.249,1.249,0,0,0-1.249-1.249H109.7a1.249,1.249,0,0,0-1.249,1.249v1.583a1.251,1.251,0,0,0,1.249,1.251h2.125a1.251,1.251,0,0,0,1.249-1.251Zm-1.213,1.583a.036.036,0,0,1-.036.036H109.7a.036.036,0,0,1-.033-.036v-1.583a.033.033,0,0,1,.033-.033h2.125a.036.036,0,0,1,.036.033Zm0,0" transform="translate(-89.982 -93.386)" fill="#fff"/>
  <path id="Path_938" data-name="Path 938" d="M86.031,118.189a1.249,1.249,0,0,0-1.249-1.249H82.649a1.249,1.249,0,0,0-1.249,1.249v1.583a1.251,1.251,0,0,0,1.249,1.251h2.125a1.251,1.251,0,0,0,1.249-1.251Zm-1.215,1.583a.036.036,0,0,1-.033.036H82.649a.036.036,0,0,1-.033-.036v-1.583a.033.033,0,0,1,.033-.033h2.125a.033.033,0,0,1,.033.033Zm0,0" transform="translate(-68.964 -93.386)" fill="#fff"/>
  <path id="Path_939" data-name="Path 939" d="M59.021,118.189a1.249,1.249,0,0,0-1.249-1.249H55.641a1.251,1.251,0,0,0-1.251,1.249v1.583a1.253,1.253,0,0,0,1.251,1.251h2.125a1.251,1.251,0,0,0,1.249-1.251Zm-1.215,1.583a.036.036,0,0,1-.033.036H55.641a.036.036,0,0,1-.036-.036v-1.583a.036.036,0,0,1,.036-.033h2.125a.033.033,0,0,1,.033.033Zm0,0" transform="translate(-47.977 -93.386)" fill="#fff"/>
  <path id="Path_940" data-name="Path 940" d="M138.834,116.94h-2.125a1.249,1.249,0,0,0-1.249,1.249v1.583a1.251,1.251,0,0,0,1.249,1.251h2.125a1.253,1.253,0,0,0,1.251-1.251v-1.583A1.251,1.251,0,0,0,138.834,116.94Zm.036,2.832a.036.036,0,0,1-.036.036h-2.125a.036.036,0,0,1-.033-.036v-1.583a.033.033,0,0,1,.033-.033h2.125a.036.036,0,0,1,.036.033Zm0,0" transform="translate(-110.97 -93.386)" fill="#fff"/>
  <path id="Path_941" data-name="Path 941" d="M167.095,118.189a1.249,1.249,0,0,0-1.249-1.249h-2.125a1.251,1.251,0,0,0-1.251,1.249v1.583a1.253,1.253,0,0,0,1.251,1.251h2.125a1.251,1.251,0,0,0,1.249-1.251Zm-1.215,1.583a.036.036,0,0,1-.033.036h-2.125a.036.036,0,0,1-.036-.036v-1.583a.036.036,0,0,1,.036-.033h2.125a.033.033,0,0,1,.033.033Zm0,0" transform="translate(-131.957 -93.386)" fill="#fff"/>
  <path id="Path_942" data-name="Path 942" d="M111.824,141.81H109.7a1.249,1.249,0,0,0-1.249,1.249v1.583a1.249,1.249,0,0,0,1.249,1.249h2.125a1.249,1.249,0,0,0,1.249-1.249v-1.583a1.249,1.249,0,0,0-1.249-1.249Zm.036,2.832a.033.033,0,0,1-.036.033H109.7a.033.033,0,0,1-.033-.033v-1.583a.033.033,0,0,1,.033-.033h2.125a.036.036,0,0,1,.036.033Zm0,0" transform="translate(-89.983 -112.711)" fill="#fff"/>
  <path id="Path_943" data-name="Path 943" d="M84.783,141.81H82.649a1.249,1.249,0,0,0-1.249,1.249v1.583a1.249,1.249,0,0,0,1.249,1.249h2.125a1.249,1.249,0,0,0,1.249-1.249v-1.583a1.249,1.249,0,0,0-1.249-1.249Zm.033,2.832a.033.033,0,0,1-.033.033H82.649a.033.033,0,0,1-.033-.033v-1.583a.033.033,0,0,1,.033-.033h2.125a.033.033,0,0,1,.033.033Zm0,0" transform="translate(-68.964 -112.711)" fill="#fff"/>
  <path id="Path_944" data-name="Path 944" d="M57.773,141.81H55.641a1.251,1.251,0,0,0-1.251,1.249v1.583a1.251,1.251,0,0,0,1.251,1.249h2.125a1.249,1.249,0,0,0,1.249-1.249v-1.583a1.249,1.249,0,0,0-1.249-1.249Zm.033,2.832a.033.033,0,0,1-.033.033H55.641a.033.033,0,0,1-.036-.033v-1.583a.036.036,0,0,1,.036-.033h2.125a.033.033,0,0,1,.033.033Zm0,0" transform="translate(-47.977 -112.711)" fill="#fff"/>
  <path id="Path_945" data-name="Path 945" d="M138.834,141.81h-2.125a1.249,1.249,0,0,0-1.249,1.249v1.583a1.249,1.249,0,0,0,1.249,1.249h2.125a1.251,1.251,0,0,0,1.251-1.249v-1.583A1.251,1.251,0,0,0,138.834,141.81Zm.036,2.832a.033.033,0,0,1-.036.033h-2.125a.033.033,0,0,1-.033-.033v-1.583a.033.033,0,0,1,.033-.033h2.125a.036.036,0,0,1,.036.033Zm0,0" transform="translate(-110.97 -112.711)" fill="#fff"/>
  <path id="Path_946" data-name="Path 946" d="M165.846,141.81h-2.125a1.251,1.251,0,0,0-1.251,1.249v1.583a1.251,1.251,0,0,0,1.251,1.249h2.125a1.249,1.249,0,0,0,1.249-1.249v-1.583a1.249,1.249,0,0,0-1.249-1.249Zm.033,2.832a.033.033,0,0,1-.033.033h-2.125a.033.033,0,0,1-.036-.033v-1.583a.036.036,0,0,1,.036-.033h2.125a.033.033,0,0,1,.033.033Zm0,0" transform="translate(-131.957 -112.711)" fill="#fff"/>
</svg>
