<svg xmlns="http://www.w3.org/2000/svg" width="25.111" height="25.111" viewBox="0 0 25.111 25.111">
  <g id="Group_97" data-name="Group 97" transform="translate(0)">
    <g id="Group_96" data-name="Group 96">
      <path id="Path_347" data-name="Path 347" d="M22.168,1.962H20.991V0H19.029V1.962H6.082V0H4.12V1.962H2.943A2.946,2.946,0,0,0,0,4.9V22.168a2.946,2.946,0,0,0,2.943,2.943H22.168a2.946,2.946,0,0,0,2.943-2.943V4.9A2.946,2.946,0,0,0,22.168,1.962Zm.981,20.206a.982.982,0,0,1-.981.981H2.943a.982.982,0,0,1-.981-.981V9.22H23.149Zm0-14.91H1.962V4.9a.982.982,0,0,1,.981-.981H4.12V5.885H6.082V3.924H19.029V5.885h1.962V3.924h1.177a.982.982,0,0,1,.981.981Z" transform="translate(0)" fill="#444070"/>
    </g>
  </g>
</svg>
