<svg id="edit-iconfinder_pen-checkbox_353430" xmlns="http://www.w3.org/2000/svg" width="19.601" height="18.791" viewBox="0 0 19.601 18.791">
  <path id="Path_45" data-name="Path 45" d="M49.072,10.62,47.319,8.869a.929.929,0,0,0-1.313,0l-1.4,1.4,3.067,3.061,1.4-1.4A.925.925,0,0,0,49.072,10.62Z" transform="translate(-29.743 -8.597)" fill="#2d2a4b"/>
  <path id="Path_46" data-name="Path 46" d="M21.922,22.822l3.067,3.062,8.448-8.432L30.37,14.39Z" transform="translate(-16.167 -12.064)" fill="#2d2a4b"/>
  <path id="Path_47" data-name="Path 47" d="M19.3,37.028l-.655,3.714,3.722-.653Z" transform="translate(-14.204 -25.615)" fill="#2d2a4b"/>
  <path id="Path_48" data-name="Path 48" d="M21.157,30.168H9.594V18.6h8.161L19.765,16.6H8.884a1.3,1.3,0,0,0-1.3,1.3V30.877a1.3,1.3,0,0,0,1.3,1.3H21.866a1.3,1.3,0,0,0,1.3-1.3V21.6l-2.007,2Z" transform="translate(-7.586 -13.385)" fill="#2d2a4b"/>
</svg>
