<svg width="21" height="20" viewBox="0 0 21 20" fill="none" xmlns="http://www.w3.org/2000/svg">
<g clip-path="url(#clip0_679_1195)">
<path fill-rule="evenodd" clip-rule="evenodd" d="M21 10C21 13.5775 23.7092 16.4938 26.911 18.0899C33.4844 21.3668 38 28.1561 38 36C38 47.0457 29.0457 56 18 56C6.9543 56 -2 47.0457 -2 36C-2 28.5813 2.03926 22.106 8.03849 18.6534C11.266 16.796 14 13.7238 14 10V10C14 6.27616 11.266 3.20401 8.03849 1.34656C2.03926 -2.10602 -2 -8.5813 -2 -16C-2 -27.0457 6.9543 -36 18 -36C29.0457 -36 38 -27.0457 38 -16C38 -8.15606 33.4844 -1.3668 26.911 1.91008C23.7092 3.50616 21 6.42247 21 10V10Z" fill="#E2E2E6"/>
</g>
<defs>
<clipPath id="clip0_679_1195">
<rect width="20" height="21" fill="white" transform="translate(0 20) rotate(-90)"/>
</clipPath>
</defs>
</svg>
