<svg xmlns="http://www.w3.org/2000/svg" width="38.96" height="43.116" viewBox="0 0 38.96 43.116">
  <g id="Group_6464" data-name="Group 6464" transform="translate(-383 -131)">
    <g id="Group_4591" data-name="Group 4591" transform="translate(383 131)">
      <path id="Path_21633" data-name="Path 21633" d="M88.421,202.112h-2.14V198.8L82.665,193h2.523l2.092,3.351L89.372,193h2.523l-3.473,5.565v3.543ZM74.834,212.164h-2.14v-9.107h2.14v6.968H78.4v2.14Zm6.893,0h-2.14v-9.107h2.14Zm3.608,0H83.2v-9.107h1.976l.164.206,3.807,4.823v-5.029h2.14v9.107h-1.93l-.21-.266-3.807-4.823Zm21.481-7.232a2.608,2.608,0,1,1-2.608,2.608A2.608,2.608,0,0,1,106.816,204.933Zm0-2.23a4.837,4.837,0,1,1-4.837,4.838A4.838,4.838,0,0,1,106.816,202.7Zm-9.635,0a4.827,4.827,0,0,1,3.659,1.673l-1.584,1.585a2.608,2.608,0,1,0-.4,3.577v-.887h-1.99V206.72H101v3.793a4.838,4.838,0,1,1-3.816-7.81Zm-4.9,19.435h-2.14v-9.107h2.14ZM95.8,215v2.323h1.6a1.24,1.24,0,0,0,1.237-1.237h0A1.121,1.121,0,0,0,97.4,215Zm0,7.139h-2.14v-9.107h4.017a3.089,3.089,0,0,1,3.2,3.055,3.215,3.215,0,0,1-3.2,3.205H95.8ZM83.7,215v2.323h2.039a1.24,1.24,0,0,0,1.236-1.237h0A1.12,1.12,0,0,0,85.737,215Zm0,7.139h-2.14v-9.107h4.454a3.089,3.089,0,0,1,3.205,3.055,3.216,3.216,0,0,1-1.791,2.874l2.355,3.179H87.119l-2.11-2.848H83.7Zm-10.9-7.274v-1.834h7.486v1.834H77.606v7.274h-2.14v-7.274ZM81.7,202.112h-2.14v-5.428L77.2,200.208l-2.364-3.482v5.386h-2.14V193H74.91l2.288,3.691L79.518,193H81.7Z" transform="translate(-72.694 -189.482)" fill="#fff" fill-rule="evenodd"/>
      <path id="Path_21634" data-name="Path 21634" d="M119.272,186.369c4.08,0,7.386,2.634,7.386,5.884s-3.306,5.884-7.386,5.884a9.063,9.063,0,0,1-2.52-.352l-4.348,1.246c-.587.156-.657.035-.438-.438l1.41-2.8a5.134,5.134,0,0,1-1.49-3.544c0-3.249,3.307-5.884,7.385-5.884" transform="translate(-91.064 -186.369)" fill="#475bb4" fill-rule="evenodd"/>
      <path id="Path_21635" data-name="Path 21635" d="M99.429,252.809a.556.556,0,0,1-.1.269c-.019.085-.043.182-.073.29s-.073.248-.119.392l0,0,0,.006c-.006.012-.032.158-.076.438v0a1.184,1.184,0,0,1-.182.458,1.48,1.48,0,0,1-.042.229h0a2.806,2.806,0,0,1-.1.3c-.05.129-.091.237-.12.324h0a1.831,1.831,0,0,0-.057.192l0,.014-.007.011a1.474,1.474,0,0,0-.076.145c-.029.064-.063.142-.1.234l-.008.021-.02.013-.035.023a.265.265,0,0,1-.07.051h0a.2.2,0,0,1-.089.022.3.3,0,0,1-.093-.018l-.028-.01-.014-.025a.444.444,0,0,1-.044-.239,6.575,6.575,0,0,1,.291-1.237q.1-.441.219-1.053v-.007l0-.007a1.893,1.893,0,0,0,.1-.334c.1-.522.233-.913.345-1.446q.087-.411.149-.848l0-.025.018-.018.022-.081h0q.028-.1.069-.285l0-.008,0-.006a.547.547,0,0,0,.037-.114.591.591,0,0,0,.012-.121.6.6,0,0,0-.022-.154.944.944,0,0,0-.067-.174l-.039-.077.082-.028c.1-.033.186-.058.257-.075a.857.857,0,0,1,.184-.027.368.368,0,0,1,.238.076h0a.381.381,0,0,1,.127.219l0,.012,0,.013c-.014.136-.041.307-.083.512h0q-.061.3-.162.71t-.161.707c-.038.188-.136.547-.165.728M91.7,255.46c-.035.049-.075.1-.119.155a.328.328,0,0,1-.131.123,1.4,1.4,0,0,1-.245.1l-.121.04.024-.125a1.867,1.867,0,0,1,.1-.334,1.051,1.051,0,0,1,.134-.245l.022-.069h0l.043-.14,0-.006,0-.006a.136.136,0,0,0,.006-.05l0-.025c-.031.032-.065.07-.1.115l-.007.009-.009.006a.541.541,0,0,0-.047.039h0c-.021.018-.048.045-.081.078h0a7.286,7.286,0,0,0-1.068,1.546,3.31,3.31,0,0,0-.372,1.376.817.817,0,0,0,.081.281h0a.187.187,0,0,0,.094.091,1.016,1.016,0,0,0,.392-.222,1.83,1.83,0,0,0,.364-.461l.006-.011.008-.008a1.766,1.766,0,0,0,.354-.468,4.626,4.626,0,0,0,.322-.753v0l0,0q.075-.171.217-.609C91.6,255.759,91.649,255.618,91.7,255.46Zm-2.658-1.147.158.02c.1.012.2.023.29.031H89.5a1.382,1.382,0,0,1,.319.106,1.07,1.07,0,0,1,.259.174l.022.021,0,.031.014.262,0,.074-.074,0c-.077,0-.183.007-.315.007s-.287,0-.486-.007h0a1.894,1.894,0,0,0-.311,0,1.156,1.156,0,0,0-.23.043,9.018,9.018,0,0,0-.648,1.557,4.077,4.077,0,0,0-.193,1.288v0a.911.911,0,0,0,.045.29h0a.114.114,0,0,0,.059.067.356.356,0,0,0,.156.028,1.181,1.181,0,0,0,.314-.053l.006,0h.008a.611.611,0,0,0,.176-.056,2.658,2.658,0,0,0,.286-.156,1.856,1.856,0,0,1,.251-.13,4.217,4.217,0,0,1,.2-1.364,4.351,4.351,0,0,1,.74-1.278,6.121,6.121,0,0,1,1.223-1.111l.02-.014h.246a.368.368,0,0,1,.3.121h0a.5.5,0,0,1,.1.331l0,.037a.488.488,0,0,1,.072-.061.93.93,0,0,1,.22-.1l.047-.015.033.037a.589.589,0,0,1,.108.168.5.5,0,0,1,.037.188.679.679,0,0,1-.016.131,1.51,1.51,0,0,1-.042.153c-.019.069-.034.127-.045.173s-.019.076-.023.1v0l0,.006q-.278.764-.416,1.268a3.125,3.125,0,0,0-.136.739,1.889,1.889,0,0,0,.063.529.691.691,0,0,0,.144.275l.063-.031h0l.088-.047c0-.062-.007-.127-.007-.2s0-.132,0-.216.006-.161.01-.247v-.016l.007-.014a.828.828,0,0,0,.032-.124c.015-.075.035-.18.058-.314q.084-.489.163-.9t.157-.747q.293-1.367.725-2.874h0c.038-.136.085-.28.141-.431s.122-.306.2-.469h0c.167-.388.26-.6.278-.64a1.856,1.856,0,0,1,.274-.461l0,0a.541.541,0,0,1,.154-.133h0a.371.371,0,0,1,.182-.048.45.45,0,0,1,.337.194l.012.015,0,.019a.613.613,0,0,1-.184.523h0c-.008.008-.252.551-.276.606a2.869,2.869,0,0,0-.139.434c-.047.194-.093.357-.137.487a1.755,1.755,0,0,1-.132.307q-.046.146-.122.394l-.174.575a.214.214,0,0,1,0,.113.245.245,0,0,1-.057.108l-.077.274-.211.752v0c-.06.2-.108.384-.145.554a4.213,4.213,0,0,0-.075.476l0,.021-.012.017a.363.363,0,0,0-.056.126h0a1.167,1.167,0,0,0-.034.218,1.2,1.2,0,0,1-.039.243h0a.471.471,0,0,1-.069.151q-.066.413-.087.681a1.384,1.384,0,0,0,.005.371l0,.018-.005.019a.38.38,0,0,0,0,.157,1.074,1.074,0,0,0,.047.183.382.382,0,0,0,.064-.027.757.757,0,0,0,.146-.1h0c.073-.06.135-.108.183-.144a.892.892,0,0,1,.107-.072.593.593,0,0,1,.207-.064h0a.975.975,0,0,1,.17-.006l.381-1.4.584-2.137q.311-1.136.529-2.01t.333-1.466l.006-.03.024-.017a.438.438,0,0,1,.131-.063.523.523,0,0,1,.15-.021.36.36,0,0,1,.231.068.3.3,0,0,1,.108.206v.01a1.249,1.249,0,0,1-.055.3c-.035.124-.086.279-.153.463a.554.554,0,0,1-.017.157h0a1.3,1.3,0,0,1-.074.211,1.526,1.526,0,0,0-.07.187.485.485,0,0,0-.021.124.8.8,0,0,1-.021.163c-.013.062-.033.133-.059.214a1.982,1.982,0,0,0-.056.2c-.053.254-.081.376-.145.629v0q-.044.16-.07.246c-.016.053-.03.092-.04.116a2.385,2.385,0,0,1-.058.277c-.03.113-.069.243-.118.389s-.087.274-.115.383c-.01.038-.018.073-.025.107q.086-.064.185-.146a6.464,6.464,0,0,1,.723-.582h0c.035-.014.544-.073.68-.105a.666.666,0,0,1,.16-.017v-.023h.011c.246,0,.339.021.276.062a.487.487,0,0,1,.087.125.343.343,0,0,1,.026.229h0a.509.509,0,0,1-.024.078l-.015.038-.04.007a3.218,3.218,0,0,0-1.075.395,2.546,2.546,0,0,0-.765.707,2.07,2.07,0,0,0-.188.722,1.412,1.412,0,0,0,.436.9,3.265,3.265,0,0,0,.294.193q.19.112.441.242l.024.012.011.025a.556.556,0,0,0,.173.2,2.052,2.052,0,0,0,.36.217l.053,0a.444.444,0,0,1,.025-.075.522.522,0,0,1,.133-.186.5.5,0,0,1,.2-.114.589.589,0,0,1,.236-.016l.026,0,.018.018.082.082.048.036a.284.284,0,0,1,.076.435c-.007.016-.019.049-.035.1l0,.006,0,0a.637.637,0,0,1-.176.228.309.309,0,0,1-.237.063H97.4l-.006,0a.71.71,0,0,1-.292-.161l-.008-.009a.892.892,0,0,1-.088.053l-.025.013L96.956,259a3.922,3.922,0,0,1-1.382-.6,3.045,3.045,0,0,1-.92-1.038l-.006-.012,0-.013h0l-.067.238c-.057.2-.127.442-.209.721l0,0a.377.377,0,0,0-.015.07.759.759,0,0,0-.006.1v.362a.383.383,0,0,1-.132.312h0a.58.58,0,0,1-.359.111l-.042,0-.023-.036a.842.842,0,0,1-.1-.225.89.89,0,0,1-.035-.247,1.851,1.851,0,0,1,.033-.286l-.029.037a2.853,2.853,0,0,1-.354.375l-.021.019h-.029a.317.317,0,0,0-.077.011h0a.738.738,0,0,0-.11.038,1.211,1.211,0,0,1-.121.044h0a.3.3,0,0,1-.212,0,.607.607,0,0,1-.119-.06l-.007,0,0,0c-.092-.083-.165-.15-.218-.2-.027-.026-.048-.047-.065-.065q-.111.059-.272.149l-.014.008-.016,0a.656.656,0,0,1-.269-.054h0a2.436,2.436,0,0,1-.359-.179l-.032-.019,0-.037a1.944,1.944,0,0,0-.108-.359,2.17,2.17,0,0,1-.075-.245l0-.009a.49.49,0,0,0-.033.063l0,.01-.006.008q-.258.322-.408.5t-.2.228l0,0a1.279,1.279,0,0,1-.444.259,1.032,1.032,0,0,1-.48.038l-.02,0L89.56,259a.986.986,0,0,1-.3-.392c-.01-.021-.019-.044-.027-.066l-.036.029a2.289,2.289,0,0,1-.864.4h0c-.046.011-.088.018-.126.023a1,1,0,0,1-.476-.057.739.739,0,0,1-.279-.2l0-.006,0,0a1.754,1.754,0,0,1-.2-.462,2.221,2.221,0,0,1-.076-.536,3.529,3.529,0,0,1,.085-.857,6.27,6.27,0,0,1,.309-1l0,0,0-.005a2.939,2.939,0,0,0,.146-.315q.063-.156.132-.358a.909.909,0,0,0-.308.1,1.188,1.188,0,0,0-.36.319l-.021.027-.034,0a.342.342,0,0,1-.283-.13,1.006,1.006,0,0,1-.182-.369l-.005-.018,0-.018a.391.391,0,0,1,.118-.2,1.255,1.255,0,0,1,.247-.182,1.06,1.06,0,0,1,.256-.16h0a1.562,1.562,0,0,1,.329-.1h0q.287-.039.573-.09a11.82,11.82,0,0,0,.533-1.205,8.639,8.639,0,0,0,.348-1.166l0-.014.009-.013a.483.483,0,0,1,.12-.124h0a.262.262,0,0,1,.148-.047.331.331,0,0,1,.225.074.8.8,0,0,1,.19.225l.012.02v.022a3.743,3.743,0,0,1-.213,1.047h0A6.787,6.787,0,0,1,89.04,254.313Zm-7.965-2.74a1.294,1.294,0,0,1-.059.266l-.018.055-.057,0-.264-.014-.1-.005.032-.093a.518.518,0,0,0,.018-.07h0a.322.322,0,0,0,.005-.059.236.236,0,0,0,0-.05.2.2,0,0,0-.014-.042l0-.006,0-.007a1.061,1.061,0,0,1-.045-.239,1.348,1.348,0,0,0-.029-.171h0c-.015-.067-.037-.148-.065-.242v-.009l-.1-.571h0a.873.873,0,0,1-.019-.2h0a.214.214,0,0,1,.053-.147h0l.014-.014.022-.022h.013l.006-.006.008-.007.012-.006a.32.32,0,0,1,.076-.027.36.36,0,0,1,.082-.009.444.444,0,0,1,.056,0h0a.548.548,0,0,1,.059.012l.032.008.016.029a1.111,1.111,0,0,1,.079.187,1.715,1.715,0,0,1,.055.226c.014.061.028.124.04.189s.025.134.037.209.023.163.034.268.021.226.03.358v.208Zm-1.282,2.74.157.02c.1.012.2.023.29.031h.009a1.382,1.382,0,0,1,.319.106,1.059,1.059,0,0,1,.259.174l.023.021,0,.031.014.262,0,.074-.074,0c-.077,0-.183.007-.315.007s-.287,0-.486-.007h0a1.9,1.9,0,0,0-.311,0,1.164,1.164,0,0,0-.23.043,9.018,9.018,0,0,0-.648,1.557,4.06,4.06,0,0,0-.192,1.288v0a.911.911,0,0,0,.045.29h0a.116.116,0,0,0,.059.067.356.356,0,0,0,.156.028,1.181,1.181,0,0,0,.314-.053l.006,0H79.2a.607.607,0,0,0,.176-.056,2.609,2.609,0,0,0,.286-.156,1.778,1.778,0,0,1,.347-.167,1.2,1.2,0,0,1,.337-.066l.108-.005-.034.1-.015.042.041-.03.071-.049.039.077c.012.024.039.069.08.132s.1.15.166.249v0a.171.171,0,0,0,.2.079h0q.336-.082.553-.145a2.38,2.38,0,0,0,.3-.1h0a1.475,1.475,0,0,0,.4-.235.874.874,0,0,0,.221-.278.528.528,0,0,0-.218-.27,3.034,3.034,0,0,0-.651-.346c-.1-.038-.2-.084-.316-.137s-.242-.114-.385-.186l0,0,0,0a.845.845,0,0,1-.282-.306h0a.787.787,0,0,1-.085-.4v-.023l.013-.018a2.422,2.422,0,0,1,.475-.461l0,0q.208-.152.336-.253a2.063,2.063,0,0,0,.17-.144l0,0,.007-.005a2.371,2.371,0,0,1,.26-.155h0q.15-.078.36-.17a3.587,3.587,0,0,1,.345-.16c.16-.067.369-.151.625-.248l.021-.008.022,0,.19.041h0l.058.012h.013l.013,0a.352.352,0,0,1,.15.1.287.287,0,0,1,.066.16v.007c0,.1-.074.2-.221.275l-.007,0-.007,0a1.062,1.062,0,0,0-.112.041c-.048.02-.1.045-.161.073s-.123.057-.169.077h0a1.3,1.3,0,0,1-.128.046l-.011,0h-.01s-.053.021-.147.063h0q-.148.066-.447.208h0a4.544,4.544,0,0,0-.578.332,2.189,2.189,0,0,0-.374.318.337.337,0,0,1-.019.047l0,.007a.176.176,0,0,1,.055.035l.044.012.067.019-.014.068h0a.052.052,0,0,0,.018.009.2.2,0,0,1,.045.019l.007,0h0a.273.273,0,0,1,.052-.005h.142l.022.039a.27.27,0,0,0,.1.09h0a1.1,1.1,0,0,0,.227.1h0a1.766,1.766,0,0,1,.256.1.568.568,0,0,1,.15.1,1.807,1.807,0,0,1,.492.347.918.918,0,0,1,.245.436l0,.01v.007a1.079,1.079,0,0,1-.3.675l-.023.027H82.81a.015.015,0,0,0-.008,0,.109.109,0,0,0-.024.03h0a.618.618,0,0,1-.081.112l0,0-.008.005a3.445,3.445,0,0,1-.8.416,1.878,1.878,0,0,1-.735.112h0a1.441,1.441,0,0,1-.778-.279l-.022-.016-.006-.027c-.037-.146-.064-.25-.083-.309-.046-.151.005,0-.314.256a2.285,2.285,0,0,1-.864.4h0c-.046.011-.088.018-.125.023a.974.974,0,0,1-.114.007.96.96,0,0,1-.363-.065.743.743,0,0,1-.279-.2l0-.006,0,0a1.754,1.754,0,0,1-.2-.462,2.222,2.222,0,0,1-.076-.536,3.529,3.529,0,0,1,.085-.857,6.271,6.271,0,0,1,.31-1l0,0,0-.005a2.839,2.839,0,0,0,.146-.315q.063-.156.132-.358a.909.909,0,0,0-.308.1,1.187,1.187,0,0,0-.36.319l-.021.027-.034,0a.341.341,0,0,1-.283-.13,1,1,0,0,1-.183-.369l-.005-.018,0-.018a.391.391,0,0,1,.118-.2,1.254,1.254,0,0,1,.247-.182,1.053,1.053,0,0,1,.256-.16h0a1.562,1.562,0,0,1,.329-.1h0q.287-.039.573-.09a11.819,11.819,0,0,0,.533-1.205,8.562,8.562,0,0,0,.348-1.166l0-.014.008-.013a.492.492,0,0,1,.121-.124h0a.262.262,0,0,1,.148-.047.33.33,0,0,1,.225.074.8.8,0,0,1,.19.225l.012.02v.022A3.743,3.743,0,0,1,80.3,253.2h0A6.827,6.827,0,0,1,79.793,254.313Zm-3.172.572,0,0-.007-.006a3.486,3.486,0,0,0-1.093,1.253l.614-.565a3.721,3.721,0,0,0,.324-.392A1.71,1.71,0,0,0,76.621,254.885ZM75.3,251.073a.41.41,0,0,0-.089.138h0a.185.185,0,0,0-.006.112l.01.038-.024.03a1.186,1.186,0,0,0-.166.288,2.753,2.753,0,0,0-.139.434c-.047.194-.093.357-.137.487a1.721,1.721,0,0,1-.131.307q-.046.146-.122.394l-.174.575a.214.214,0,0,1,0,.113.246.246,0,0,1-.058.108l-.076.274-.211.752v0c-.061.2-.109.384-.145.554a4.1,4.1,0,0,0-.075.476l0,.021-.013.017a.374.374,0,0,0-.055.126h0a1.219,1.219,0,0,0-.033.218,1.286,1.286,0,0,1-.039.243h0a.483.483,0,0,1-.068.151q-.066.413-.087.681a1.39,1.39,0,0,0,0,.371l0,.018,0,.019a.37.37,0,0,0,0,.157,1.133,1.133,0,0,0,.048.183.422.422,0,0,0,.064-.027.772.772,0,0,0,.145-.1h0q.11-.09.183-.144a.892.892,0,0,1,.107-.072.59.59,0,0,1,.207-.064h0c.024,0,.05-.005.078-.006-.012-.088-.023-.184-.031-.289v-.01l0-.01a5.5,5.5,0,0,1,2.118-3.485l.012-.01.014,0c.021,0,.059-.013.115-.022h0l.21-.035a.586.586,0,0,1,.234,0,.451.451,0,0,1,.2.1.505.505,0,0,1,.173.405v.012c-.008.054-.016.113-.024.174s-.013.114-.017.169v.007l0,.008a2.5,2.5,0,0,1-.538.9,7.536,7.536,0,0,1-1.1,1.006.566.566,0,0,1-.181.082,2.962,2.962,0,0,1-.311.071.2.2,0,0,0-.119.058h0a.155.155,0,0,0-.028.114v.023l-.012.02a1.133,1.133,0,0,0-.121.277.681.681,0,0,0-.022.248v.008a.621.621,0,0,0,.025.141c.018.066.044.147.079.243a.657.657,0,0,0,.272.216,1.037,1.037,0,0,0,.4.077l.035-.027.02-.015h.024a1.045,1.045,0,0,0,.247-.036h0a2.773,2.773,0,0,0,.333-.11q.2-.119.5-.285t.735-.383l.084-.043.023.092a.5.5,0,0,1,.016.115.266.266,0,0,1-.024.111.323.323,0,0,1-.067.1L77.53,258l-.007.007-.007,0a.039.039,0,0,0-.018.019.093.093,0,0,0,0,.045l.006.044-.036.027a6.873,6.873,0,0,1-1.014.648,2.291,2.291,0,0,1-.807.259h0a1.772,1.772,0,0,1-.389-.029,1.853,1.853,0,0,1-.381-.116l0,0,0,0a1.084,1.084,0,0,1-.276-.209h0a.876.876,0,0,1-.175-.272.937.937,0,0,1-.036-.1c-.042.063-.086.123-.132.181a2.924,2.924,0,0,1-.354.375l-.022.019h-.028a.313.313,0,0,0-.077.011h0a.734.734,0,0,0-.109.038,1.267,1.267,0,0,1-.121.044h0a.341.341,0,0,1-.1.018.352.352,0,0,1-.116-.022.623.623,0,0,1-.119-.06l-.006,0,0,0c-.092-.083-.165-.15-.217-.2a.936.936,0,0,1-.1-.107l0,0a.869.869,0,0,1-.092-.274,2.169,2.169,0,0,1-.029-.375c0-.06,0-.132,0-.216s.006-.161.011-.247v-.016l.007-.014a.861.861,0,0,0,.032-.124c.016-.075.036-.18.058-.314q.084-.489.164-.9t.157-.747q.293-1.367.725-2.874h0c.038-.136.085-.28.141-.431s.122-.306.2-.469h0c.168-.388.261-.6.279-.64a1.824,1.824,0,0,1,.274-.461l0,0a.534.534,0,0,1,.154-.133h0a.371.371,0,0,1,.182-.048.449.449,0,0,1,.336.194l.013.015,0,.019a.614.614,0,0,1-.185.523Z" transform="translate(-72.72 -216.142)" fill="#475bb4"/>
    </g>
  </g>
</svg>
