<svg id="icons-06" xmlns="http://www.w3.org/2000/svg" width="31.251" height="36.65" viewBox="0 0 31.251 36.65">
  <path id="Path_947" data-name="Path 947" d="M79.456,51.475a.535.535,0,0,0-.535.535v3.3a1.706,1.706,0,0,1-1.7,1.7h-25.7a1.706,1.706,0,0,1-1.7-1.7V26.664a1.7,1.7,0,0,1,1.7-1.7h5.129a.537.537,0,0,0,0-1.073H51.516a2.778,2.778,0,0,0-2.776,2.774V55.308a2.778,2.778,0,0,0,2.776,2.774h25.7a2.776,2.776,0,0,0,2.774-2.774v-3.3a.537.537,0,0,0-.535-.535Zm0,0" transform="translate(-48.74 -21.433)" fill="#fff"/>
  <path id="Path_948" data-name="Path 948" d="M156.827,23.89H151.7a.537.537,0,0,0,0,1.073h5.129a1.7,1.7,0,0,1,1.7,1.7V49.729a.535.535,0,0,0,1.07,0V26.664A2.776,2.776,0,0,0,156.827,23.89Zm0,0" transform="translate(-128.349 -21.433)" fill="#fff"/>
  <path id="Path_949" data-name="Path 949" d="M93.3,19.876h4.857a.537.537,0,0,0,0-1.073H93.3a.8.8,0,0,1-.8-.8V15.82a.8.8,0,0,1,.8-.8h.285a1.057,1.057,0,0,0,.751-.312l.363-.363a1.371,1.371,0,0,1,.981-.406h3.717a1.371,1.371,0,0,1,.981.406l.363.363a1.055,1.055,0,0,0,.751.31h.285a.8.8,0,0,1,.8.8v2.187a.8.8,0,0,1-.8.8h-1.338a.537.537,0,0,0,0,1.073h1.338a1.871,1.871,0,0,0,1.869-1.869V15.82a1.871,1.871,0,0,0-1.869-1.869H101.5l-.35-.361a2.453,2.453,0,0,0-1.739-.72H95.678a2.453,2.453,0,0,0-1.739.72l-.361.361H93.3A1.869,1.869,0,0,0,91.43,15.82v2.187A1.869,1.869,0,0,0,93.3,19.876Zm0,0" transform="translate(-81.911 -12.87)" fill="#fff"/>
  <path id="Path_950" data-name="Path 950" d="M71.269,51.44A1.269,1.269,0,0,0,70,52.707V54.74a1.269,1.269,0,0,0,1.269,1.267H73.3a1.269,1.269,0,0,0,1.269-1.267V52.707A1.269,1.269,0,0,0,73.3,51.44Zm2.23,1.267V54.74a.2.2,0,0,1-.2.2H71.269a.2.2,0,0,1-.2-.2V52.707a.194.194,0,0,1,.2-.2H73.3a.194.194,0,0,1,.2.2Zm0,0" transform="translate(-65.259 -42.84)" fill="#fff"/>
  <path id="Path_951" data-name="Path 951" d="M73.3,77H71.269A1.267,1.267,0,0,0,70,78.269V80.3a1.269,1.269,0,0,0,1.269,1.267H73.3A1.269,1.269,0,0,0,74.569,80.3V78.269A1.267,1.267,0,0,0,73.3,77Zm.2,3.3a.2.2,0,0,1-.2.2H71.269a.2.2,0,0,1-.2-.2V78.269a.194.194,0,0,1,.2-.2H73.3a.194.194,0,0,1,.2.2Zm0,0" transform="translate(-65.259 -62.7)" fill="#fff"/>
  <path id="Path_952" data-name="Path 952" d="M73.3,128.14H71.269A1.269,1.269,0,0,0,70,129.407v2.034a1.269,1.269,0,0,0,1.269,1.269H73.3a1.269,1.269,0,0,0,1.269-1.269v-2.034A1.269,1.269,0,0,0,73.3,128.14Zm.2,3.3a.194.194,0,0,1-.2.2H71.269a.194.194,0,0,1-.2-.2v-2.034a.194.194,0,0,1,.2-.194H73.3a.194.194,0,0,1,.2.194Zm0,0" transform="translate(-65.259 -102.437)" fill="#fff"/>
  <path id="Path_953" data-name="Path 953" d="M98.235,54.65h14.576a.535.535,0,1,0,0-1.07H98.235a.535.535,0,0,0,0,1.07Zm0,0" transform="translate(-86.783 -44.502)" fill="#fff"/>
  <path id="Path_954" data-name="Path 954" d="M98.235,66.05h14.576a.535.535,0,1,0,0-1.07H98.235a.535.535,0,0,0,0,1.07Zm0,0" transform="translate(-86.783 -53.36)" fill="#fff"/>
  <path id="Path_955" data-name="Path 955" d="M98.235,80.27h14.576a.535.535,0,1,0,0-1.07H98.235a.535.535,0,0,0,0,1.07Zm0,0" transform="translate(-86.783 -64.41)" fill="#fff"/>
  <path id="Path_956" data-name="Path 956" d="M98.107,91.609h14.576a.537.537,0,1,0,0-1.073H98.107a.537.537,0,1,0,0,1.073Zm0,0" transform="translate(-86.654 -73.217)" fill="#fff"/>
  <path id="Path_957" data-name="Path 957" d="M98.107,105.779h14.576a.537.537,0,1,0,0-1.073H98.107a.537.537,0,1,0,0,1.073Zm0,0" transform="translate(-86.654 -84.227)" fill="#fff"/>
  <path id="Path_958" data-name="Path 958" d="M98.107,117.179h14.576a.537.537,0,1,0,0-1.073H98.107a.537.537,0,1,0,0,1.073Zm0,0" transform="translate(-86.654 -93.085)" fill="#fff"/>
  <path id="Path_959" data-name="Path 959" d="M98.107,131.349h14.576a.537.537,0,1,0,0-1.073H98.107a.537.537,0,1,0,0,1.073Zm0,0" transform="translate(-86.654 -104.096)" fill="#fff"/>
  <path id="Path_960" data-name="Path 960" d="M98.107,142.749h14.576a.537.537,0,1,0,0-1.073H98.107a.537.537,0,1,0,0,1.073Zm0,0" transform="translate(-86.654 -112.954)" fill="#fff"/>
  <path id="Path_961" data-name="Path 961" d="M75.543,99.642a.533.533,0,0,0-.756,0l-.763.76a1.267,1.267,0,0,0-.725-.223H71.269A1.269,1.269,0,0,0,70,101.442v2.034a1.269,1.269,0,0,0,1.269,1.267H73.3a1.269,1.269,0,0,0,1.269-1.267v-2.034a.626.626,0,0,0,0-.065l.979-.979a.533.533,0,0,0,0-.756Zm-4.275,1.6h1.913l-.941.941-.591-.466a.537.537,0,0,0-.578-.056v-.223a.194.194,0,0,1,.2-.2Zm2.23,2.23a.194.194,0,0,1-.2.2H71.269a.194.194,0,0,1-.2-.2v-.845l.892.693a.531.531,0,0,0,.709-.042l.834-.834Zm0,0" transform="translate(-65.259 -80.171)" fill="#fff"/>
</svg>
