<svg width="19" height="19" viewBox="0 0 19 19" fill="none" xmlns="http://www.w3.org/2000/svg">
<g clip-path="url(#clip0_805_1191)">
<path d="M5 0.5H13.064C14.2575 0.5 15.4021 0.974106 16.246 1.81802C17.0899 2.66193 17.564 3.80653 17.564 5V13.064C17.564 14.2575 17.0899 15.4021 16.246 16.246C15.4021 17.0899 14.2575 17.564 13.064 17.564H5C3.80653 17.564 2.66193 17.0899 1.81802 16.246C0.974106 15.4021 0.5 14.2575 0.5 13.064L0.5 5C0.5 3.80653 0.974106 2.66193 1.81802 1.81802C2.66193 0.974106 3.80653 0.5 5 0.5V0.5Z" stroke="#2D2A4B"/>
<g clip-path="url(#clip1_805_1191)">
<path d="M5.41508 7.08008L9.08008 3.41508" stroke="#2D2A4B" stroke-width="2" stroke-linecap="round" stroke-linejoin="round"/>
<path d="M12.7451 7.08008L9.08012 3.41508" stroke="#2D2A4B" stroke-width="2" stroke-linecap="round" stroke-linejoin="round"/>
<path d="M9.08008 16.729L9.08008 3.415" stroke="#2D2A4B" stroke-width="2" stroke-linejoin="round"/>
</g>
</g>
<defs>
<clipPath id="clip0_805_1191">
<rect width="18.064" height="18.064" fill="white"/>
</clipPath>
<clipPath id="clip1_805_1191">
<rect width="10.158" height="14.729" fill="white" transform="translate(4 2)"/>
</clipPath>
</defs>
</svg>
