<svg xmlns="http://www.w3.org/2000/svg" width="58.147" height="58.147" viewBox="0 0 58.147 58.147">
  <g id="Group_1965" data-name="Group 1965" transform="translate(1 1)">
    <g id="Group_1964" data-name="Group 1964">
      <path id="Path_1026" data-name="Path 1026" d="M521.552,843.321a15.61,15.61,0,0,1-3.812,1.087c.613-.1,1.513-1.213,1.873-1.662a6.981,6.981,0,0,0,1.266-2.308c.033-.067.058-.149-.009-.2a.218.218,0,0,0-.2.016,19.385,19.385,0,0,1-4.521,1.73.3.3,0,0,1-.312-.082,3.621,3.621,0,0,0-.4-.4,8.005,8.005,0,0,0-2.189-1.341,7.622,7.622,0,0,0-3.358-.541,8.029,8.029,0,0,0-3.187.9,8.236,8.236,0,0,0-2.57,2.1,7.9,7.9,0,0,0-1.534,3.075,8.338,8.338,0,0,0-.082,3.246c.025.18.009.2-.156.18-6.209-.923-11.355-3.145-15.533-7.906-.18-.207-.278-.207-.427.016-1.828,2.74-.942,7.142,1.341,9.306.3.289.618.578.956.84a7.932,7.932,0,0,1-3-.84c-.182-.114-.273-.049-.289.157a4.861,4.861,0,0,0,.049.89,7.968,7.968,0,0,0,4.91,6.349,4.686,4.686,0,0,0,1,.3,8.891,8.891,0,0,1-2.94.091c-.215-.042-.3.065-.215.271,1.294,3.525,4.087,4.573,6.177,5.172.28.049.56.049.84.114-.018.026-.033.026-.051.051-.693,1.056-3.1,1.844-4.216,2.234a15.1,15.1,0,0,1-6.407.821c-.345-.051-.417-.047-.51,0s-.012.14.1.229c.436.289.881.544,1.334.792a21.134,21.134,0,0,0,4.283,1.712c7.7,2.126,16.363.564,22.143-5.177,4.537-4.509,6.127-10.726,6.127-16.951,0-.243.289-.378.459-.506a14.972,14.972,0,0,0,3.015-3.134.946.946,0,0,0,.2-.6v-.033C521.706,843.221,521.706,843.251,521.552,843.321Z" transform="translate(-474.783 -827.043)" fill="none" stroke="#f47a69" stroke-miterlimit="10" stroke-width="2"/>
      <ellipse id="Ellipse_1418" data-name="Ellipse 1418" cx="28.074" cy="28.074" rx="28.074" ry="28.074" fill="none" stroke="#f47a69" stroke-miterlimit="10" stroke-width="2"/>
    </g>
  </g>
</svg>
