<svg xmlns="http://www.w3.org/2000/svg" width="58.147" height="58.147" viewBox="0 0 58.147 58.147">
  <g id="Group_1960" data-name="Group 1960" transform="translate(0.999 1)">
    <g id="Group_1959" data-name="Group 1959" transform="translate(0.001)">
      <path id="Path_1023" data-name="Path 1023" d="M572.07,802.938a9.7,9.7,0,0,0-9.7-9.705H537.55a9.7,9.7,0,0,0-9.7,9.705v11.547a9.7,9.7,0,0,0,9.7,9.705h24.816a9.7,9.7,0,0,0,9.7-9.705Zm-14.593,6.64-11.129,5.5c-.436.236-1.919-.079-1.919-.576v-11.3c0-.5,1.5-.818,1.931-.569l10.653,5.8C557.46,808.687,557.929,809.333,557.477,809.578Z" transform="translate(-521.884 -780.639)" fill="none" stroke="#f47a69" stroke-miterlimit="10" stroke-width="2"/>
      <ellipse id="Ellipse_1416" data-name="Ellipse 1416" cx="28.074" cy="28.074" rx="28.074" ry="28.074" fill="none" stroke="#f47a69" stroke-miterlimit="10" stroke-width="2"/>
    </g>
  </g>
</svg>
